<?xml version="1.0" encoding="utf-8"?>
<!-- Generator: Adobe Illustrator 16.0.0, SVG Export Plug-In . SVG Version: 6.00 Build 0)  -->
<svg version="1.2" baseProfile="tiny" id="Layer_1" xmlns="http://www.w3.org/2000/svg" xmlns:xlink="http://www.w3.org/1999/xlink"
	 x="0px" y="0px" viewBox="0 0 170 170" xml:space="preserve">
<g>
	<path d="M106.258,149.117v-34.12h55.646V20.883H67.826v30.118H8.096v63.996h59.73v34.12H106.258z M12.306,55.308h55.521v55.376
		H12.306V55.308z M102.052,144.803H72.04v-29.806h30.012V144.803z M157.59,110.684H72.04V25.195h85.55V110.684z"/>
	<path d="M28.337,78.782c-1.185,0-2.283-0.21-3.285-0.627c-1.01-0.411-1.882-0.978-2.601-1.693c-0.733-0.716-1.31-1.551-1.724-2.513
		c-0.414-0.959-0.62-1.987-0.62-3.087v-0.04c0-1.093,0.206-2.122,0.62-3.093c0.414-0.97,1-1.82,1.743-2.543
		c0.744-0.719,1.621-1.283,2.625-1.701c1.005-0.414,2.101-0.622,3.283-0.622c1.169,0,2.268,0.208,3.272,0.622
		c1.015,0.418,1.876,0.982,2.598,1.696c0.741,0.716,1.308,1.549,1.729,2.511c0.413,0.97,0.618,1.996,0.618,3.084v0.046
		c0,1.096-0.205,2.126-0.618,3.089c-0.421,0.974-1.002,1.819-1.741,2.541c-0.753,0.722-1.625,1.292-2.63,1.703
		C30.602,78.572,29.509,78.782,28.337,78.782 M28.366,74.955c0.581,0,1.11-0.112,1.598-0.329c0.488-0.219,0.89-0.511,1.224-0.886
		c0.336-0.373,0.599-0.803,0.793-1.304c0.197-0.49,0.286-1.017,0.286-1.574v-0.04c0-0.557-0.089-1.076-0.286-1.577
		c-0.194-0.495-0.457-0.931-0.805-1.307c-0.364-0.383-0.773-0.682-1.254-0.916c-0.487-0.222-1.014-0.332-1.6-0.332
		c-0.584,0-1.113,0.105-1.596,0.331c-0.474,0.209-0.882,0.515-1.231,0.879c-0.34,0.375-0.597,0.807-0.783,1.305
		c-0.18,0.493-0.271,1.018-0.271,1.571v0.046c0,0.553,0.098,1.083,0.28,1.573c0.192,0.496,0.453,0.932,0.806,1.31
		c0.344,0.382,0.751,0.687,1.238,0.911C27.248,74.843,27.78,74.955,28.366,74.955"/>
	<path d="M52.493,78.782c-1.104,0-2.128-0.198-3.093-0.589c-0.955-0.396-1.79-0.947-2.504-1.652
		c-0.702-0.71-1.264-1.547-1.683-2.521c-0.416-0.968-0.623-2.018-0.623-3.158v-0.04c0-1.113,0.207-2.146,0.616-3.116
		c0.411-0.966,0.968-1.812,1.684-2.539c0.72-0.722,1.566-1.288,2.549-1.69c0.976-0.409,2.057-0.613,3.219-0.613
		c0.795,0,1.502,0.08,2.14,0.232c0.646,0.15,1.241,0.365,1.773,0.655c0.526,0.278,1.015,0.627,1.438,1.016
		c0.424,0.392,0.815,0.822,1.147,1.289l-3.193,2.472c-0.437-0.557-0.919-0.991-1.44-1.312c-0.527-0.316-1.163-0.484-1.906-0.484
		c-0.534,0-1.029,0.108-1.475,0.32c-0.446,0.209-0.828,0.499-1.141,0.863c-0.32,0.361-0.568,0.793-0.764,1.291
		c-0.177,0.495-0.266,1.018-0.266,1.574v0.043c0,0.567,0.089,1.102,0.266,1.607c0.195,0.504,0.443,0.935,0.764,1.297
		c0.312,0.365,0.694,0.658,1.141,0.868c0.445,0.212,0.94,0.316,1.475,0.316c0.394,0,0.754-0.045,1.089-0.126
		c0.329-0.095,0.62-0.219,0.891-0.392c0.276-0.166,0.527-0.36,0.769-0.583c0.241-0.231,0.48-0.483,0.712-0.765l3.193,2.28
		c-0.364,0.496-0.764,0.961-1.196,1.379c-0.434,0.418-0.921,0.786-1.463,1.093c-0.552,0.306-1.155,0.548-1.837,0.72
		C54.094,78.692,53.34,78.782,52.493,78.782"/>
	<path d="M45.372,87.128h5.902c1.371,0,2.598,0.191,3.666,0.558c1.071,0.377,1.976,0.896,2.714,1.571
		c0.724,0.668,1.293,1.462,1.685,2.392c0.374,0.921,0.568,1.936,0.568,3.051v0.042c0,1.109-0.194,2.129-0.583,3.074
		c-0.399,0.943-0.961,1.749-1.714,2.431c-0.734,0.687-1.655,1.226-2.738,1.615c-1.089,0.382-2.31,0.574-3.688,0.574h-5.812V87.128z
		 M51.348,98.679c1.269,0,2.298-0.337,3.071-1.006c0.775-0.67,1.162-1.629,1.162-2.867v-0.041c0-1.223-0.387-2.179-1.162-2.854
		c-0.773-0.678-1.803-1.013-3.071-1.013h-1.735v7.78H51.348z"/>
	<path d="M87.007,137.594c-1.039,0-1.968-0.133-2.793-0.396c-0.819-0.26-1.528-0.662-2.104-1.205
		c-0.582-0.543-1.022-1.236-1.333-2.069c-0.31-0.829-0.468-1.813-0.468-2.944v-8.116h4.088v8.038c0,1.047,0.244,1.818,0.724,2.322
		c0.474,0.501,1.121,0.754,1.936,0.754c0.796,0,1.438-0.24,1.916-0.727c0.478-0.479,0.729-1.229,0.729-2.25v-8.138h4.078v8.013
		c0,1.172-0.157,2.182-0.482,3.031c-0.325,0.846-0.773,1.543-1.364,2.086c-0.586,0.543-1.285,0.945-2.133,1.205
		C88.972,137.461,88.041,137.594,87.007,137.594"/>
	<path d="M83.736,40.656c-0.563,0-1.093-0.097-1.581-0.295c-0.47-0.202-0.889-0.475-1.235-0.818c-0.35-0.336-0.626-0.742-0.83-1.203
		c-0.199-0.467-0.298-0.957-0.298-1.483v-0.015c0-0.528,0.099-1.026,0.298-1.492c0.204-0.461,0.48-0.872,0.83-1.213
		c0.359-0.345,0.777-0.619,1.266-0.817c0.487-0.203,0.999-0.304,1.57-0.304s1.099,0.101,1.571,0.304
		c0.487,0.198,0.906,0.466,1.254,0.811c0.347,0.346,0.628,0.749,0.819,1.207c0.202,0.461,0.311,0.954,0.311,1.479v0.026
		c0,0.517-0.108,1.015-0.311,1.48c-0.191,0.466-0.473,0.871-0.832,1.218c-0.35,0.347-0.775,0.619-1.254,0.821
		C84.827,40.56,84.298,40.656,83.736,40.656 M83.756,38.817c0.278,0,0.529-0.05,0.764-0.155c0.239-0.104,0.434-0.247,0.591-0.43
		c0.163-0.175,0.288-0.376,0.38-0.619c0.088-0.237,0.133-0.49,0.133-0.757v-0.015c0-0.267-0.045-0.521-0.133-0.763
		c-0.092-0.237-0.225-0.445-0.385-0.626c-0.172-0.183-0.374-0.324-0.601-0.438c-0.231-0.107-0.495-0.162-0.775-0.162
		c-0.278,0-0.53,0.054-0.761,0.161c-0.227,0.101-0.422,0.243-0.589,0.423c-0.17,0.177-0.293,0.386-0.377,0.622
		c-0.089,0.242-0.133,0.49-0.133,0.756v0.026c0,0.264,0.044,0.515,0.133,0.751c0.099,0.237,0.222,0.446,0.389,0.627
		c0.168,0.182,0.365,0.332,0.594,0.442C83.215,38.766,83.471,38.817,83.756,38.817"/>
	<path d="M92.729,40.656c-0.527,0-1.024-0.094-1.487-0.282c-0.461-0.192-0.862-0.456-1.197-0.791c-0.34-0.338-0.61-0.738-0.808-1.21
		c-0.206-0.462-0.3-0.974-0.3-1.517v-0.015c0-0.537,0.094-1.033,0.29-1.5c0.197-0.463,0.473-0.872,0.808-1.214
		c0.345-0.35,0.751-0.623,1.227-0.817c0.468-0.194,0.98-0.295,1.554-0.295c0.377,0,0.709,0.039,1.017,0.115
		c0.32,0.067,0.594,0.175,0.848,0.313c0.266,0.136,0.487,0.296,0.694,0.486c0.209,0.188,0.389,0.396,0.557,0.616l-1.539,1.188
		c-0.199-0.265-0.436-0.477-0.688-0.63c-0.256-0.151-0.556-0.226-0.921-0.226c-0.256,0-0.492,0.046-0.704,0.147
		c-0.212,0.103-0.398,0.24-0.552,0.411c-0.157,0.177-0.271,0.386-0.359,0.622c-0.094,0.237-0.133,0.49-0.133,0.756v0.026
		c0,0.266,0.039,0.526,0.133,0.767c0.089,0.243,0.202,0.448,0.359,0.624c0.153,0.175,0.34,0.315,0.552,0.414
		c0.212,0.104,0.448,0.154,0.704,0.154c0.2,0,0.365-0.021,0.522-0.065c0.162-0.041,0.3-0.102,0.429-0.182
		c0.138-0.082,0.251-0.176,0.374-0.281c0.11-0.108,0.227-0.233,0.335-0.361L95.975,39c-0.167,0.235-0.364,0.46-0.571,0.665
		c-0.206,0.195-0.438,0.375-0.694,0.517c-0.266,0.15-0.557,0.265-0.889,0.349C93.495,40.614,93.138,40.656,92.729,40.656"/>
	<path d="M99.767,33.111h1.966l3.122,7.403h-2.182l-0.537-1.315h-2.837l-0.515,1.315h-2.142L99.767,33.111z M101.555,37.622
		l-0.822-2.087L99.9,37.622H101.555z"/>
	<path d="M106.004,33.165h2.84c0.654,0,1.238,0.089,1.753,0.265c0.515,0.181,0.953,0.433,1.311,0.751
		c0.345,0.325,0.62,0.707,0.805,1.152c0.183,0.444,0.278,0.929,0.278,1.464v0.019c0,0.529-0.096,1.027-0.285,1.474
		c-0.188,0.457-0.463,0.848-0.812,1.171c-0.365,0.329-0.793,0.583-1.323,0.773c-0.515,0.188-1.115,0.281-1.765,0.281h-2.801V33.165z
		 M108.878,38.707c0.61,0,1.108-0.166,1.478-0.487c0.369-0.319,0.557-0.777,0.557-1.378V36.83c0-0.59-0.188-1.048-0.557-1.371
		c-0.369-0.325-0.867-0.491-1.478-0.491h-0.827v3.739H108.878z"/>
	<path d="M83.353,52.246c-0.527,0-1.005-0.069-1.419-0.198c-0.418-0.135-0.782-0.336-1.073-0.61c-0.29-0.28-0.515-0.627-0.68-1.057
		c-0.152-0.421-0.236-0.919-0.236-1.493v-4.126h2.088v4.088c0,0.528,0.113,0.92,0.359,1.182c0.239,0.253,0.571,0.38,0.976,0.38
		c0.416,0,0.736-0.122,0.985-0.366c0.236-0.247,0.364-0.627,0.364-1.145v-4.139h2.07v4.072c0,0.601-0.081,1.109-0.241,1.54
		s-0.396,0.783-0.689,1.063c-0.303,0.274-0.667,0.476-1.086,0.61C84.348,52.177,83.872,52.246,83.353,52.246"/>
	<polygon points="88.635,44.762 90.535,44.762 93.566,48.646 93.566,44.762 95.571,44.762 95.571,52.106 93.788,52.106
		90.646,48.081 90.646,52.106 88.635,52.106 	"/>
	<rect x="97.519" y="44.762" width="2.044" height="7.345"/>
	<polygon points="100.732,44.762 103.008,44.762 104.667,49.416 106.342,44.762 108.578,44.762 105.604,52.163 103.712,52.163 	"/>
	<polygon points="109.725,44.762 115.623,44.762 115.623,46.497 111.739,46.497 111.739,47.611 115.258,47.611 115.258,49.214
		111.739,49.214 111.739,50.379 115.68,50.379 115.68,52.106 109.725,52.106 	"/>
	<path d="M117.4,44.762h3.465c0.571,0,1.044,0.066,1.443,0.213c0.394,0.137,0.709,0.339,0.95,0.589
		c0.434,0.42,0.655,0.988,0.655,1.71v0.019c0,0.569-0.141,1.035-0.409,1.407c-0.275,0.371-0.646,0.654-1.104,0.848l1.749,2.56h-2.35
		l-1.478-2.223h-0.012h-0.877v2.223H117.4V44.762z M120.771,48.289c0.359,0,0.621-0.077,0.808-0.234
		c0.189-0.159,0.291-0.373,0.291-0.636v-0.018c0-0.291-0.102-0.517-0.296-0.658c-0.191-0.145-0.473-0.215-0.808-0.215h-1.332v1.761
		H120.771z"/>
	<path d="M128.371,52.236c-0.66,0-1.286-0.104-1.869-0.31c-0.599-0.2-1.115-0.505-1.574-0.919l1.133-1.352
		c0.734,0.587,1.524,0.879,2.389,0.879c0.267,0,0.473-0.043,0.616-0.128c0.147-0.09,0.217-0.209,0.217-0.371v-0.02
		c0-0.081-0.011-0.148-0.055-0.207c-0.029-0.057-0.094-0.119-0.194-0.175c-0.091-0.054-0.222-0.108-0.377-0.16
		c-0.15-0.053-0.359-0.107-0.61-0.166c-0.39-0.085-0.754-0.187-1.091-0.294c-0.34-0.113-0.631-0.25-0.879-0.42
		c-0.242-0.174-0.443-0.388-0.592-0.638c-0.138-0.26-0.206-0.57-0.206-0.952v-0.021c0-0.346,0.063-0.656,0.191-0.942
		c0.123-0.283,0.32-0.534,0.566-0.742c0.249-0.209,0.547-0.373,0.896-0.486c0.348-0.118,0.743-0.179,1.182-0.179
		c0.644,0,1.197,0.085,1.685,0.25c0.5,0.167,0.945,0.415,1.345,0.736l-1.022,1.439c-0.334-0.236-0.682-0.416-1.031-0.535
		c-0.35-0.126-0.697-0.188-1.024-0.188c-0.241,0-0.424,0.047-0.547,0.133c-0.128,0.095-0.182,0.207-0.182,0.335v0.026
		c0,0.08,0.015,0.154,0.054,0.222c0.034,0.059,0.102,0.119,0.194,0.171c0.097,0.049,0.225,0.105,0.392,0.155
		c0.168,0.053,0.375,0.106,0.626,0.163c0.418,0.095,0.793,0.195,1.14,0.319c0.338,0.124,0.628,0.275,0.864,0.445
		c0.236,0.179,0.416,0.387,0.542,0.637c0.125,0.245,0.197,0.544,0.197,0.881v0.024c0,0.375-0.072,0.71-0.227,1.005
		c-0.139,0.293-0.33,0.544-0.596,0.748c-0.262,0.211-0.572,0.36-0.937,0.473C129.228,52.184,128.814,52.236,128.371,52.236"/>
	<rect x="132.929" y="44.762" width="2.046" height="7.345"/>
	<polygon points="138.439,46.549 136.229,46.549 136.229,44.762 142.673,44.762 142.673,46.549 140.471,46.549 140.471,52.106
		138.439,52.106 	"/>
	<polygon points="146.371,49.364 143.579,44.762 145.898,44.762 147.415,47.443 148.932,44.762 151.212,44.762 148.418,49.331
		148.418,52.106 146.371,52.106 	"/>
	<path d="M30.396,87.074h-4.091l-6.513,15.416h4.462l0.98-2.452h6.123l1.008,2.452h4.543L30.396,87.074z M26.47,96.755l1.853-4.629
		l1.821,4.629H26.47z"/>
</g>
</svg>
