<?xml version="1.0" encoding="utf-8"?>
<!-- Generator: Adobe Illustrator 19.0.0, SVG Export Plug-In . SVG Version: 6.00 Build 0)  -->
<svg version="1.1" id="Layer_1" xmlns="http://www.w3.org/2000/svg" xmlns:xlink="http://www.w3.org/1999/xlink" x="0px" y="0px"
	 viewBox="156 -165.3 343.5 362.3" style="enable-background:new 156 -165.3 343.5 362.3;" xml:space="preserve">
<style type="text/css">
	.st0{fill:#231F20;}
	.st1{fill:#FFC10E;}
	.st2{fill:#F6921E;}
	.st3{fill:#00894B;}
	.st4{fill:#006090;}
	.st5{fill:#1A5692;}
	.st6{fill:#FFFFFF;}
	.st7{fill:#185590;}
	.st8{fill:#F59120;}
	.st9{fill:#FFC013;}
	.st10{fill:#00884B;}
</style>
<g>
	<path class="st0" d="M456.7,53.3c-0.5-4.5-2.7-7.8-3.9-9.5c-0.9-1.3-2.6-3.6-5.4-5.7c-2.1-1.6-5.6-4.3-10.3-4.6
		c-4.2-0.2-6.5,1.6-7.5,0.4c-0.9-1.1,0.6-2.8,1.4-7c0.5-2.5,0.3-5.1,0-10.3c-0.4-5.6-0.6-8.4-1.8-9.6c-2.9-2.7-8.4-1.2-8.5-0.6
		c0,0.3,2.2,0.2,4.4,2c0.3,0.3,2.6,2.2,2.2,3.7c-0.5,1.9-5.4,2-5.9,2c-2.6,0-4.3-0.7-9-2.4c-7.9-2.9-8.5-3-8.6-2.8
		c-0.3,0.5,3.6,3.5,8.1,5.9c5.2,2.8,6.6,2.3,8.8,4.5c3.4,3.6,4.2,9.4,2.7,10.4c-1,0.7-2.3-1.2-7.4-3.1c-2.6-1-4.8-1.5-6.1-1.7
		c-4.3-0.9-5.1-0.4-9.1-1.4c-2.2-0.5-3.9-1.2-5.3-1.7c-5.4-2-6-3.1-8.3-3.5c-3.8-0.6-5.1,1.8-9.5,3.1c-8.5,2.5-11.8-4.2-20.7-2.3
		c-1.1,0.2-8.1,1.7-11.7,7.5c-2.1,3.3-2.5,7.1-6.7,14.6c-1,1.7-1.7,2.8-2.3,2.6c-1.8-0.4-1.5-10.4-1.3-13.4
		c0.3-7.6,3.1-10.5,1.1-13.5c-0.9-1.3-2.8-2.8-4.9-3.2c-2.4-0.5-3.7,0.7-4.7-0.1c-1.4-1.2-0.1-5.2,0.8-7.6c2.6-7.4,4.9-6.9,5.6-11.7
		c0.3-2.2,0.3-5.4,1.2-8.9c0.8-3.1,1.2-3.5,2.2-6.8c1.2-3.7,2.4-7.5,2.8-12.2c0.4-4.7,0.6-7.4-0.7-10.4c-1.3-3-3.1-3.8-2.9-5.9
		c0.3-2.9,4.1-4.7,5-5.1c4.3-2,8.7-0.7,10-0.3c5,1.6,7.2,5,8.1,4.4c1.2-0.9,0.1-6.8-3.7-10.2c-6-5.3-15.6-1.7-17.2-1.1
		c-2.3,0.9-7.3,2.7-9.7,7.8c-1.6,3.5-1.4,7.4-1.3,7.8c0.2,3.1,1.3,3.7,2.1,7.6C329.1-37,329-35,329-31c-0.1,4.5-0.1,7.5-0.7,11.2
		c-0.9,5.5-2.1,12.8-5.7,13.6c-2.1,0.5-4.2-1.3-5.3-2.6c-0.7-0.9-2-3-1.1-9.2c1.3-8.7,4.6-9.6,4.1-15.1c-0.4-4.7-3-8.2-3.9-9.3
		c-2.3-3-4.7-4.5-5.5-5c-5-2.9-10-2.5-11.3-2.4c-4.9,0.5-4.9,2.4-10.2,3.1c-5,0.6-5.9-0.9-9.7,0.1c-5,1.3-8.6,5.4-8.2,6.3
		c0.4,0.8,3.6-1.4,9.2-1.1c4.7,0.3,4.9,2,9.2,2.1c4.5,0.2,5-1.6,10.8-1.8c3.2-0.1,5.5-0.2,7.6,1.3c2.4,1.7,3.9,4.8,3.9,7.8
		c0,3.6-2.2,4.2-4.1,10.3c-0.8,2.5-1.5,4.7-1.3,7.7c0.4,5.6,3.7,9.6,4.6,10.5c2.2,2.5,3.1,2,4.6,4.2c2.6,3.7,3,9.3,1.1,10.6
		c-1.4,0.9-3-1.4-7.8-3.2c-7.2-2.6-8.3-1-13.1-3.2c-3.9-1.8-6.5-4.4-11.7-9.8c-4-4.1-4.3-5.2-7-6.6c-4.7-2.5-9.9-2.1-10.6-2
		c-4,0.4-5.3,1.8-9,1.3c-2-0.3-1.9-0.7-5.1-1.6c-3.4-1-6.5-1.9-9.9-1.3c-4.2,0.6-4,2.6-8,3c-2.9,0.2-2.9-0.8-7.7-1
		c-4.1-0.2-4.7,0.5-6.7-0.3c-1.9-0.8-1.7-1.7-4.8-3.3c-1.6-0.8-2.2-1-3.6-1.9c-0.9-0.7-1.2-1.1-2.7-2.5c-2.7-2.7-2.7-2.3-3.7-3.4
		c-2.2-2.6-1.5-3.9-3.2-5.6c-1.9-1.8-4.3-1.9-5.8-2c-4.6-0.2-7.9,2.4-9,3.3c-3.5,2.9-5.4,7.1-4.8,7.6c0.5,0.4,2.4-2.2,7.1-4.3
		c2.4-1.1,6-2.7,8.7-1c1.5,1,2.1,2.7,2.2,3.3c0.7,2.4-0.1,4.6-1,6.9c-0.8,2-1.5,3.3-2.6,4.9c-5.3,8.7-5.6,8.9-5.8,10.2
		c-0.2,2.1,0.6,1.4,2.3,8.6c0.7,3.1,0.9,4.7,1.9,7.9c0.7,2.1,1.7,5.4,2.2,5.3c0.8-0.1,0.4-5.9,0.3-7.9c-0.1-2.2-0.3-4.4-1-7.3
		c-0.8-3.1-1.2-2.9-1.3-4.3c-0.3-3.8,2.4-8.7,6.7-10.2c2.8-1,5.3-0.3,6.1,0c3.2,1,3.6,3.1,7.1,4.6c2.3,1,4.3,1,6.1,1
		c4.8,0,5.7-1.8,11.2-3c3.2-0.7,7.6-1.6,12.3,0c3.4,1.2,3.7,2.5,7.5,3.4c1.3,0.3,3.4,0.4,7.5,0.6c5.1,0.2,5.8,0.1,7.5,0.6
		c2.2,0.6,5.1,1.4,6,3.6c1,2.2-0.9,3.8-0.2,6.1c0.8,2.5,3.9,3.5,6,4.3c4.2,1.5,8.8,4.5,18,10.4c5,3.2,7.8,5,10.9,8.3
		c1.9,2.1,8.8,9.6,9.3,20.2c0.2,4.5-0.9,5.8-2.4,13.4c-1.6,8.3-1.9,15.3-1.9,19.9c0,0-1.8,11.5-7,34.1c-1.7,7.5-2.4,9.2-3.8,11.1
		c-1,1.4-2.4,2.8-2.8,5.2c-0.4,2.6,0.5,4.4,1,5.9c1.4,4.9-1.9,8.8-4.5,15.2c-1.7,4.3-2.5,9.2-3.8,19.1c-0.8,5.8-1.4,13.4-1.3,22.4
		h42.9c-1.1-9.1-1-16.5-0.7-21.6c0.8-12.9,0.8-13.4,0.8-13.4c1.6-10.1-2.2-11.2-0.8-15.9c1.6-5.6,4.9-6.3,6.5-13.4
		c0.6-2.5,0.5-4.5,0.3-8c-0.2-3.5-0.5-3.4-1.4-10.1c0,0-1.1-7.6-1.1-14.6c0-0.5,0-1.1,0.1-1.8c0.3-3.8,1.4-6.5,1.7-7.5
		c1.3-3.6,0-4.2,0.7-14.6c0.5-6.7,1.2-9.3,1.4-10.1c1.1-3.7,2.2-7.4,5.3-8.9c2.4-1.2,3.8,0.1,6.3-1.5c2-1.3,2.8-3.4,3.3-4.7
		c0.5-1.3,1.5-4.6,0.4-8c-0.8-2.5-2.3-2.5-2.4-4c-0.1-2.9,4.9-6,9.8-7.1c4.4-1,5.5,0.4,13.7,1.4c9.7,1.2,10.4-0.5,17.6,1.2
		c4.6,1.1,5,1.9,10.6,3c4.9,1,5.5,0.5,10.5,1.5c6.8,1.4,6.9,2.6,10.5,2.6c5-0.1,5.6-2.5,9.7-2c3.9,0.5,6.6,3.1,8.7,5.1
		c3.8,3.6,5.3,7.6,5.8,8.7c2.3,6.2,0.9,10.8,1.8,11C454.5,64.8,457.3,59.2,456.7,53.3z"/>
	<circle class="st1" cx="351.5" cy="65.1" r="5.3"/>
	<circle class="st1" cx="357.9" cy="58.5" r="2.1"/>
	<circle class="st1" cx="359.2" cy="38.9" r="1.4"/>
	<circle class="st2" cx="368.3" cy="38.5" r="5"/>
	<circle class="st1" cx="362.1" cy="46.3" r="3.1"/>
	<circle class="st1" cx="364.1" cy="54.3" r="3.8"/>
	<circle class="st2" cx="368.7" cy="48.1" r="1.8"/>
	<circle class="st2" cx="382.9" cy="42.2" r="7.2"/>
	<circle class="st2" cx="373.3" cy="46.8" r="1.5"/>
	<circle class="st2" cx="373.3" cy="52.8" r="2.9"/>
	<circle class="st1" cx="382.4" cy="54.4" r="2.1"/>
	<circle class="st2" cx="378.5" cy="51.4" r="1.5"/>
	<circle class="st2" cx="370.2" cy="58" r="1.5"/>
	<circle class="st2" cx="382.9" cy="65.7" r="4.4"/>
	<circle class="st2" cx="367.7" cy="72.6" r="2.5"/>
	<circle class="st2" cx="394.9" cy="38.6" r="2.7"/>
	<circle class="st2" cx="396.5" cy="46.9" r="3.5"/>
	<circle class="st2" cx="392.6" cy="53.3" r="2.4"/>
	<circle class="st2" cx="387.4" cy="52.7" r="1.6"/>
	<circle class="st2" cx="403.1" cy="41.4" r="3.9"/>
	<circle class="st2" cx="403.6" cy="49.4" r="2"/>
	<circle class="st2" cx="400.3" cy="54.7" r="3.3"/>
	<circle class="st1" cx="406.8" cy="46.6" r="1.3"/>
	<circle class="st1" cx="408.8" cy="39.7" r="0.7"/>
	<circle class="st3" cx="421.3" cy="10.2" r="2.3"/>
	<circle class="st3" cx="415.6" cy="10.2" r="1.4"/>
	<circle class="st2" cx="416.6" cy="21.7" r="3.4"/>
	<circle class="st2" cx="407.8" cy="20" r="1.1"/>
	<circle class="st1" cx="411.9" cy="18.2" r="1.8"/>
	<circle class="st2" cx="411" cy="22.2" r="1.3"/>
	<circle class="st3" cx="433" cy="30.6" r="1.9"/>
	<circle class="st2" cx="416.6" cy="48.6" r="8.2"/>
	<circle class="st3" cx="447.5" cy="26.3" r="8.9"/>
	<circle class="st3" cx="435.2" cy="25.1" r="2.9"/>
	<circle class="st2" cx="426.7" cy="44.9" r="1.9"/>
	<circle class="st3" cx="434.6" cy="43.4" r="2"/>
	<circle class="st2" cx="430.6" cy="47" r="1.6"/>
	<circle class="st3" cx="437.9" cy="42.1" r="0.8"/>
	<circle class="st3" cx="449" cy="59.9" r="2.7"/>
	<circle class="st3" cx="446.1" cy="52.1" r="1.2"/>
	<circle class="st3" cx="450" cy="55.1" r="1.8"/>
	<circle class="st3" cx="444.6" cy="47.6" r="1"/>
	<circle class="st3" cx="439.7" cy="51.3" r="3.8"/>
	<circle class="st3" cx="439.7" cy="45.2" r="1.8"/>
	<circle class="st3" cx="443.7" cy="44.5" r="0.8"/>
	<circle class="st3" cx="452.4" cy="37.5" r="2.5"/>
	<circle class="st3" cx="456.4" cy="33.6" r="1.1"/>
	<circle class="st3" cx="456.9" cy="41" r="2"/>
	<circle class="st3" cx="457.7" cy="37.2" r="1.3"/>
	<circle class="st3" cx="437.2" cy="19.5" r="1.4"/>
	<circle class="st3" cx="443.1" cy="12.3" r="4.4"/>
	<circle class="st3" cx="455.7" cy="18.2" r="1.8"/>
	<circle class="st3" cx="460.9" cy="27.2" r="3.4"/>
	<circle class="st2" cx="402.3" cy="13.3" r="3.1"/>
	<circle class="st2" cx="401.2" cy="19.8" r="2.4"/>
	<circle class="st2" cx="408.2" cy="15.2" r="1.5"/>
	<circle class="st2" cx="404.8" cy="22.3" r="0.8"/>
	<circle class="st3" cx="404.9" cy="0.7" r="7.2"/>
	<circle class="st3" cx="423.7" cy="2.2" r="2.4"/>
	<circle class="st3" cx="438.3" cy="0.2" r="7.6"/>
	<circle class="st3" cx="434.1" cy="12.7" r="2.5"/>
	<circle class="st3" cx="433.1" cy="18.3" r="1.5"/>
	<circle class="st3" cx="459.4" cy="48.5" r="1.9"/>
	<circle class="st3" cx="468.4" cy="40" r="7.5"/>
	<circle class="st3" cx="461.2" cy="54.5" r="2.3"/>
	<circle class="st3" cx="470.4" cy="53.2" r="3.7"/>
	<circle class="st3" cx="461.8" cy="62.8" r="3.7"/>
	<circle class="st3" cx="455.4" cy="74.4" r="7.9"/>
	<circle class="st3" cx="445.9" cy="65.1" r="2.3"/>
	<circle class="st3" cx="443" cy="57.5" r="1.6"/>
	<circle class="st3" cx="467" cy="58.9" r="1.4"/>
	<circle class="st3" cx="474.1" cy="65" r="5.7"/>
	<circle class="st3" cx="478.4" cy="49.6" r="2.6"/>
	<circle class="st3" cx="478.6" cy="36.3" r="1.2"/>
	<circle class="st3" cx="479" cy="42.5" r="2"/>
	<circle class="st3" cx="430.3" cy="54.3" r="4.3"/>
	<circle class="st3" cx="416.6" cy="3.6" r="3.4"/>
	<circle class="st2" cx="361.4" cy="-10.3" r="20.5"/>
	<circle class="st2" cx="376.8" cy="13" r="5"/>
	<circle class="st2" cx="360.6" cy="15" r="2.7"/>
	<circle class="st2" cx="367.7" cy="14.1" r="2.5"/>
	<circle class="st1" cx="335.9" cy="7.7" r="6"/>
	<circle class="st2" cx="349.6" cy="13.7" r="3.1"/>
	<circle class="st1" cx="342.5" cy="19.6" r="4.6"/>
	<circle class="st1" cx="339.4" cy="28.7" r="2.4"/>
	<circle class="st1" cx="336.9" cy="-7.7" r="2.5"/>
	<circle class="st3" cx="387.6" cy="2.8" r="6.1"/>
	<circle class="st1" cx="392" cy="15.1" r="4.4"/>
	<circle class="st2" cx="346.1" cy="-46.5" r="6.6"/>
	<circle class="st3" cx="346.8" cy="-32.7" r="4.3"/>
	<circle class="st1" cx="341.7" cy="-25.3" r="2.2"/>
	<circle class="st2" cx="338.3" cy="-18" r="2.4"/>
	<circle class="st1" cx="364.1" cy="-41.1" r="8.4"/>
	<circle class="st2" cx="420.4" cy="-9.3" r="7.2"/>
	<circle class="st2" cx="396.5" cy="-18" r="11.5"/>
	<circle class="st3" cx="379.2" cy="-30.8" r="5.3"/>
	<circle class="st2" cx="282.1" cy="-24.2" r="11.9"/>
	<circle class="st2" cx="300.5" cy="-33.4" r="5.8"/>
	<circle class="st3" cx="303.7" cy="-24.5" r="2.6"/>
	<circle class="st2" cx="297.2" cy="-25.1" r="2.5"/>
	<circle class="st1" cx="299.5" cy="-15.6" r="5.9"/>
	<circle class="st1" cx="310.9" cy="3.1" r="3.8"/>
	<circle class="st1" cx="299.1" cy="2.3" r="2"/>
	<circle class="st2" cx="304.3" cy="-0.8" r="2.5"/>
	<circle class="st1" cx="304.3" cy="4.1" r="1.1"/>
	<circle class="st2" cx="289" cy="-6.6" r="3.2"/>
	<circle class="st2" cx="291.6" cy="-12.3" r="1.4"/>
	<circle class="st4" cx="296.1" cy="-5.1" r="3.1"/>
	<circle class="st2" cx="304.6" cy="-6.9" r="2"/>
	<circle class="st2" cx="320.4" cy="-10.4" r="2.2"/>
	<circle class="st1" cx="321.7" cy="-16.9" r="3.5"/>
	<circle class="st2" cx="320.8" cy="-25.2" r="1.1"/>
	<circle class="st2" cx="324.6" cy="-22.6" r="2.2"/>
	<circle class="st1" cx="324.7" cy="-29.2" r="2.9"/>
	<circle class="st3" cx="321.1" cy="-40.5" r="1.3"/>
	<circle class="st2" cx="324.7" cy="-36.3" r="3"/>
	<circle class="st2" cx="321.9" cy="-45.8" r="2.7"/>
	<circle class="st2" cx="315.5" cy="-52.6" r="5.3"/>
	<circle class="st3" cx="356.4" cy="-71.4" r="6.9"/>
	<circle class="st4" cx="363.5" cy="-58.7" r="3.9"/>
	<circle class="st3" cx="339.4" cy="-74.2" r="8.2"/>
	<circle class="st3" cx="370.2" cy="-72.7" r="3.5"/>
	<circle class="st4" cx="313.4" cy="-74.4" r="14.2"/>
	<circle class="st2" cx="329.8" cy="-65.6" r="3"/>
	<circle class="st2" cx="324.6" cy="-58.7" r="3.5"/>
	<circle class="st2" cx="417.9" cy="-25.3" r="6.9"/>
	<circle class="st3" cx="440.2" cy="-21.8" r="11.5"/>
	<circle class="st2" cx="431.6" cy="-9.2" r="1.8"/>
	<circle class="st4" cx="437.8" cy="-45.9" r="8.9"/>
	<circle class="st2" cx="286.9" cy="-59.4" r="9.1"/>
	<circle class="st3" cx="302" cy="-57" r="4.4"/>
	<circle class="st3" cx="327" cy="-92.4" r="5.8"/>
	<circle class="st3" cx="339.5" cy="-90.2" r="5.2"/>
	<circle class="st3" cx="456.4" cy="-39.5" r="2.5"/>
	<circle class="st3" cx="448.2" cy="-37" r="1.8"/>
	<circle class="st3" cx="452.9" cy="-32.4" r="3"/>
	<circle class="st3" cx="382" cy="-92.7" r="4.3"/>
	<circle class="st3" cx="378.5" cy="-81" r="2"/>
	<circle class="st3" cx="409.5" cy="-92.7" r="11.6"/>
	<circle class="st3" cx="443.3" cy="-81.3" r="8.9"/>
	<circle class="st3" cx="429.3" cy="-89.2" r="3.2"/>
	<circle class="st4" cx="439.4" cy="-63.9" r="6"/>
	<circle class="st3" cx="261.6" cy="-36" r="5.9"/>
	<circle class="st2" cx="249.1" cy="-25.4" r="8.8"/>
	<circle class="st2" cx="269" cy="-53" r="5.7"/>
	<circle class="st2" cx="254.5" cy="-48.4" r="6.4"/>
	<circle class="st1" cx="266.7" cy="-44.1" r="1.7"/>
	<circle class="st2" cx="191.1" cy="-17.3" r="4.8"/>
	<circle class="st1" cx="197.1" cy="-23.8" r="1.7"/>
	<circle class="st2" cx="219.6" cy="-37.5" r="14.9"/>
	<circle class="st2" cx="242.1" cy="-51.2" r="5.7"/>
	<circle class="st1" cx="246.9" cy="-39.9" r="3.2"/>
	<circle class="st2" cx="188.4" cy="-43.5" r="9.5"/>
	<circle class="st4" cx="199.5" cy="-36" r="2.1"/>
	<circle class="st2" cx="204.8" cy="-61.9" r="9.3"/>
	<circle class="st2" cx="202.7" cy="-48" r="3.2"/>
	<circle class="st1" cx="201.6" cy="-41.8" r="1.8"/>
	<circle class="st2" cx="218.4" cy="-58.2" r="3.8"/>
	<circle class="st2" cx="213.1" cy="-53.5" r="1.3"/>
	<circle class="st2" cx="208.6" cy="-51" r="1.3"/>
	<circle class="st4" cx="234.5" cy="-76.4" r="19.1"/>
	<circle class="st1" cx="249.1" cy="-57.9" r="3.2"/>
	<circle class="st4" cx="259.1" cy="-63.3" r="5.5"/>
	<circle class="st1" cx="238.5" cy="28.2" r="28.3"/>
	<circle class="st1" cx="208.1" cy="1.7" r="7.1"/>
	<circle class="st1" cx="203.9" cy="14.1" r="2.9"/>
	<circle class="st1" cx="267" cy="4.7" r="3.7"/>
	<circle class="st1" cx="284.1" cy="28" r="9.5"/>
	<circle class="st1" cx="273.8" cy="14.4" r="3.1"/>
	<circle class="st2" cx="278.6" cy="44.4" r="4"/>
	<circle class="st1" cx="301.7" cy="44.4" r="10.1"/>
	<circle class="st2" cx="271.7" cy="-66.3" r="5.1"/>
	<circle class="st4" cx="263.7" cy="-85" r="8"/>
	<circle class="st2" cx="264.1" cy="-72.3" r="3.1"/>
	<circle class="st4" cx="284.6" cy="-81" r="10.1"/>
	<circle class="st1" cx="294.7" cy="-70.1" r="2.5"/>
	<circle class="st4" cx="298.5" cy="-93.4" r="6.4"/>
	<circle class="st2" cx="252.3" cy="-98.2" r="5.6"/>
	<circle class="st2" cx="178.9" cy="-69.6" r="14.9"/>
	<circle class="st2" cx="179.4" cy="-3.4" r="10.1"/>
	<circle class="st1" cx="188" cy="10.9" r="5.3"/>
	<circle class="st1" cx="190.1" cy="23.9" r="6"/>
	<circle class="st2" cx="201.9" cy="22.9" r="2.8"/>
	<circle class="st1" cx="198.9" cy="28" r="1.9"/>
	<circle class="st1" cx="176.2" cy="10.9" r="3.8"/>
	<circle class="st1" cx="180.6" cy="18.4" r="3.5"/>
	<circle class="st1" cx="286.9" cy="42.3" r="3.1"/>
	<circle class="st2" cx="170.1" cy="-30.1" r="10.5"/>
	<circle class="st2" cx="166.9" cy="-13.7" r="4.2"/>
	<circle class="st1" cx="180.1" cy="-18.4" r="3.1"/>
	<circle class="st4" cx="334.3" cy="-111.2" r="13.2"/>
	<circle class="st4" cx="313.4" cy="-97.3" r="6.3"/>
	<circle class="st5" cx="309.3" cy="-115.5" r="9.5"/>
	<circle class="st4" cx="216.8" cy="-93" r="3.4"/>
	<circle class="st5" cx="238.6" cy="-103.3" r="6.1"/>
	<circle class="st3" cx="220.8" cy="-112.8" r="2.1"/>
	<circle class="st4" cx="223" cy="-102.4" r="6.6"/>
	<circle class="st3" cx="462.7" cy="-60.1" r="14.2"/>
	<circle class="st4" cx="322" cy="-132.3" r="7.3"/>
	<circle class="st5" cx="301" cy="-131.1" r="6.3"/>
	<circle class="st4" cx="438.5" cy="-93.9" r="2.6"/>
	<circle class="st5" cx="244.7" cy="-121.1" r="10"/>
	<circle class="st3" cx="347.1" cy="-129.8" r="6.6"/>
	<circle class="st4" cx="361.2" cy="-127.5" r="4.3"/>
	<circle class="st4" cx="203.9" cy="-109.3" r="11.8"/>
	<circle class="st4" cx="475.9" cy="-39.3" r="8.1"/>
	<circle class="st4" cx="402.3" cy="-114.5" r="5.1"/>
	<circle class="st3" cx="451.5" cy="-44" r="2.4"/>
	<circle class="st3" cx="463.5" cy="-38.9" r="3.5"/>
	<circle class="st1" cx="164.2" cy="-49.7" r="8.2"/>
	<circle class="st3" cx="431" cy="-81.9" r="2.1"/>
	<circle class="st1" cx="272.9" cy="54.6" r="3.9"/>
	<circle class="st4" cx="218.7" cy="-121.6" r="5.6"/>
	<circle class="st4" cx="229.6" cy="-114" r="5.4"/>
	<path d="M456.7,53.3c-0.5-4.5-2.7-7.8-3.9-9.5c-0.9-1.3-2.6-3.6-5.4-5.7c-2.1-1.6-5.6-4.3-10.3-4.6c-4.2-0.2-6.5,1.6-7.5,0.4
		c-0.9-1.1,0.6-2.8,1.4-7c0.5-2.5,0.3-5.1,0-10.3c-0.4-5.6-0.6-8.4-1.8-9.6c-2.9-2.7-8.4-1.2-8.5-0.6c0,0.3,2.2,0.2,4.4,2
		c0.3,0.3,2.6,2.2,2.2,3.7c-0.5,1.9-5.4,2-5.9,2c-2.6,0-4.3-0.7-9-2.4c-7.9-2.9-8.5-3-8.6-2.8c-0.3,0.5,3.6,3.5,8.1,5.9
		c5.2,2.8,6.6,2.3,8.8,4.5c3.4,3.6,4.2,9.4,2.7,10.4c-1,0.7-2.3-1.2-7.4-3.1c-2.6-1-4.8-1.5-6.1-1.7c-4.3-0.9-5.1-0.4-9.1-1.4
		c-2.2-0.5-3.9-1.2-5.3-1.7c-5.4-2-6-3.1-8.3-3.5c-3.8-0.6-5.1,1.8-9.5,3.1c-8.5,2.5-11.8-4.2-20.7-2.3c-1.1,0.2-8.1,1.7-11.7,7.5
		c-2.1,3.3-2.5,7.1-6.7,14.6c-1,1.7-1.7,2.8-2.3,2.6c-1.8-0.4-1.5-10.4-1.3-13.4c0.3-7.6,3.1-10.5,1.1-13.5
		c-0.9-1.3-2.8-2.8-4.9-3.2c-2.4-0.5-3.7,0.7-4.7-0.1c-1.4-1.2-0.1-5.2,0.8-7.6c2.6-7.4,4.9-6.9,5.6-11.7c0.3-2.2,0.3-5.4,1.2-8.9
		c0.8-3.1,1.2-3.5,2.2-6.8c1.2-3.7,2.4-7.5,2.8-12.2c0.4-4.7,0.6-7.4-0.7-10.4c-1.3-3-3.1-3.8-2.9-5.9c0.3-2.9,4.1-4.7,5-5.1
		c4.3-2,8.7-0.7,10-0.3c5,1.6,7.2,5,8.1,4.4c1.2-0.9,0.1-6.8-3.7-10.2c-6-5.3-15.6-1.7-17.2-1.1c-2.3,0.9-7.3,2.7-9.7,7.8
		c-1.6,3.5-1.4,7.4-1.3,7.8c0.2,3.1,1.3,3.7,2.1,7.6C329.1-37,329-35,329-31c-0.1,4.5-0.1,7.5-0.7,11.2c-0.9,5.5-2.1,12.8-5.7,13.6
		c-2.1,0.5-4.2-1.3-5.3-2.6c-0.7-0.9-2-3-1.1-9.2c1.3-8.7,4.6-9.6,4.1-15.1c-0.4-4.7-3-8.2-3.9-9.3c-2.3-3-4.7-4.5-5.5-5
		c-5-2.9-10-2.5-11.3-2.4c-4.9,0.5-4.9,2.4-10.2,3.1c-5,0.6-5.9-0.9-9.7,0.1c-5,1.3-8.6,5.4-8.2,6.3c0.4,0.8,3.6-1.4,9.2-1.1
		c4.7,0.3,4.9,2,9.2,2.1c4.5,0.2,5-1.6,10.8-1.8c3.2-0.1,5.5-0.2,7.6,1.3c2.4,1.7,3.9,4.8,3.9,7.8c0,3.6-2.2,4.2-4.1,10.3
		c-0.8,2.5-1.5,4.7-1.3,7.7c0.4,5.6,3.7,9.6,4.6,10.5c2.2,2.5,3.1,2,4.6,4.2c2.6,3.7,3,9.3,1.1,10.6c-1.4,0.9-3-1.4-7.8-3.2
		c-7.2-2.6-8.3-1-13.1-3.2c-3.9-1.8-6.5-4.4-11.7-9.8c-4-4.1-4.3-5.2-7-6.6c-4.7-2.5-9.9-2.1-10.6-2c-4,0.4-5.3,1.8-9,1.3
		c-2-0.3-1.9-0.7-5.1-1.6c-3.4-1-6.5-1.9-9.9-1.3c-4.2,0.6-4,2.6-8,3c-2.9,0.2-2.9-0.8-7.7-1c-4.1-0.2-4.7,0.5-6.7-0.3
		c-1.9-0.8-1.7-1.7-4.8-3.3c-1.6-0.8-2.2-1-3.6-1.9c-0.9-0.7-1.2-1.1-2.7-2.5c-2.7-2.7-2.7-2.3-3.7-3.4c-2.2-2.6-1.5-3.9-3.2-5.6
		c-1.9-1.8-4.3-1.9-5.8-2c-4.6-0.2-7.9,2.4-9,3.3c-3.5,2.9-5.4,7.1-4.8,7.6c0.5,0.4,2.4-2.2,7.1-4.3c2.4-1.1,6-2.7,8.7-1
		c1.5,1,2.1,2.7,2.2,3.3c0.7,2.4-0.1,4.6-1,6.9c-0.8,2-1.5,3.3-2.6,4.9c-5.3,8.7-5.6,8.9-5.8,10.2c-0.2,2.1,0.6,1.4,2.3,8.6
		c0.7,3.1,0.9,4.7,1.9,7.9c0.7,2.1,1.7,5.4,2.2,5.3c0.8-0.1,0.4-5.9,0.3-7.9c-0.1-2.2-0.3-4.4-1-7.3c-0.8-3.1-1.2-2.9-1.3-4.3
		c-0.3-3.8,2.4-8.7,6.7-10.2c2.8-1,5.3-0.3,6.1,0c3.2,1,3.6,3.1,7.1,4.6c2.3,1,4.3,1,6.1,1c4.8,0,5.7-1.8,11.2-3
		c3.2-0.7,7.6-1.6,12.3,0c3.4,1.2,3.7,2.5,7.5,3.4c1.3,0.3,3.4,0.4,7.5,0.6c5.1,0.2,5.8,0.1,7.5,0.6c2.2,0.6,5.1,1.4,6,3.6
		c1,2.2-0.9,3.8-0.2,6.1c0.8,2.5,3.9,3.5,6,4.3c4.2,1.5,8.8,4.5,18,10.4c5,3.2,7.8,5,10.9,8.3c1.9,2.1,8.8,9.6,9.3,20.2
		c0.2,4.5-0.9,5.8-2.4,13.4c-1.6,8.3-1.9,15.3-1.9,19.9c0,0-1.8,11.5-7,34.1c-1.7,7.5-2.4,9.2-3.8,11.1c-1,1.4-2.4,2.8-2.8,5.2
		c-0.4,2.6,0.5,4.4,1,5.9c1.4,4.9-1.9,8.8-4.5,15.2c-1.7,4.3-2.5,9.2-3.8,19.1c-0.8,5.8-2.4,14.1-11.6,22.4h71
		c-10.9-6.9-18.7-16.5-18.4-21.6c0.8-12.9,0.8-13.4,0.8-13.4c1.6-10.1-2.2-11.2-0.8-15.9c1.6-5.6,4.9-6.3,6.5-13.4
		c0.6-2.5,0.5-4.5,0.3-8c-0.2-3.5-0.5-3.4-1.4-10.1c0,0-1.1-7.6-1.1-14.6c0-0.5,0-1.1,0.1-1.8c0.3-3.8,1.4-6.5,1.7-7.5
		c1.3-3.6,0-4.2,0.7-14.6c0.5-6.7,1.2-9.3,1.4-10.1c1.1-3.7,2.2-7.4,5.3-8.9c2.4-1.2,3.8,0.1,6.3-1.5c2-1.3,2.8-3.4,3.3-4.7
		c0.5-1.3,1.5-4.6,0.4-8c-0.8-2.5-2.3-2.5-2.4-4c-0.1-2.9,4.9-6,9.8-7.1c4.4-1,5.5,0.4,13.7,1.4c9.7,1.2,10.4-0.5,17.6,1.2
		c4.6,1.1,5,1.9,10.6,3c4.9,1,5.5,0.5,10.5,1.5c6.8,1.4,6.9,2.6,10.5,2.6c5-0.1,5.6-2.5,9.7-2c3.9,0.5,6.6,3.1,8.7,5.1
		c3.8,3.6,5.3,7.6,5.8,8.7c2.3,6.2,0.9,10.8,1.8,11C454.5,64.8,457.3,59.2,456.7,53.3z"/>
	<circle class="st1" cx="351.5" cy="65.1" r="5.3"/>
	<circle class="st1" cx="357.9" cy="58.5" r="2.1"/>
	<circle class="st1" cx="359.2" cy="38.9" r="1.4"/>
	<circle class="st2" cx="368.3" cy="38.5" r="5"/>
	<circle class="st1" cx="362.1" cy="46.3" r="3.1"/>
	<circle class="st1" cx="364.1" cy="54.3" r="3.8"/>
	<circle class="st2" cx="368.7" cy="48.1" r="1.8"/>
	<circle class="st2" cx="382.9" cy="42.2" r="7.2"/>
	<circle class="st2" cx="373.3" cy="46.8" r="1.5"/>
	<circle class="st2" cx="373.3" cy="52.8" r="2.9"/>
	<circle class="st1" cx="382.4" cy="54.4" r="2.1"/>
	<circle class="st2" cx="378.5" cy="51.4" r="1.5"/>
	<circle class="st2" cx="370.2" cy="58" r="1.5"/>
	<circle class="st2" cx="382.9" cy="65.7" r="4.4"/>
	<circle class="st2" cx="367.7" cy="72.6" r="2.5"/>
	<circle class="st2" cx="394.9" cy="38.6" r="2.7"/>
	<circle class="st2" cx="396.5" cy="46.9" r="3.5"/>
	<circle class="st2" cx="392.6" cy="53.3" r="2.4"/>
	<circle class="st2" cx="387.4" cy="52.7" r="1.6"/>
	<circle class="st2" cx="403.1" cy="41.4" r="3.9"/>
	<circle class="st2" cx="403.6" cy="49.4" r="2"/>
	<circle class="st2" cx="400.3" cy="54.7" r="3.3"/>
	<circle class="st1" cx="406.8" cy="46.6" r="1.3"/>
	<circle class="st1" cx="408.8" cy="39.7" r="0.7"/>
	<circle class="st3" cx="421.3" cy="10.2" r="2.3"/>
	<circle class="st3" cx="415.6" cy="10.2" r="1.4"/>
	<circle class="st2" cx="416.6" cy="21.7" r="3.4"/>
	<circle class="st2" cx="407.8" cy="20" r="1.1"/>
	<circle class="st1" cx="411.9" cy="18.2" r="1.8"/>
	<circle class="st2" cx="411" cy="22.2" r="1.3"/>
	<circle class="st3" cx="433" cy="30.6" r="1.9"/>
	<circle class="st2" cx="416.6" cy="48.6" r="8.2"/>
	<circle class="st3" cx="447.5" cy="26.3" r="8.9"/>
	<circle class="st3" cx="435.2" cy="25.1" r="2.9"/>
	<circle class="st2" cx="426.7" cy="44.9" r="1.9"/>
	<circle class="st3" cx="434.6" cy="43.4" r="2"/>
	<circle class="st2" cx="430.6" cy="47" r="1.6"/>
	<circle class="st3" cx="437.9" cy="42.1" r="0.8"/>
	<circle class="st3" cx="449" cy="59.9" r="2.7"/>
	<circle class="st3" cx="446.1" cy="52.1" r="1.2"/>
	<circle class="st3" cx="450" cy="55.1" r="1.8"/>
	<circle class="st3" cx="444.6" cy="47.6" r="1"/>
	<circle class="st3" cx="439.7" cy="51.3" r="3.8"/>
	<circle class="st3" cx="439.7" cy="45.2" r="1.8"/>
	<circle class="st3" cx="443.7" cy="44.5" r="0.8"/>
	<circle class="st3" cx="452.4" cy="37.5" r="2.5"/>
	<circle class="st3" cx="456.4" cy="33.6" r="1.1"/>
	<circle class="st3" cx="456.9" cy="41" r="2"/>
	<circle class="st3" cx="457.7" cy="37.2" r="1.3"/>
	<circle class="st3" cx="437.2" cy="19.5" r="1.4"/>
	<circle class="st3" cx="443.1" cy="12.3" r="4.4"/>
	<circle class="st3" cx="455.7" cy="18.2" r="1.8"/>
	<circle class="st3" cx="460.9" cy="27.2" r="3.4"/>
	<circle class="st2" cx="402.3" cy="13.3" r="3.1"/>
	<circle class="st2" cx="401.2" cy="19.8" r="2.4"/>
	<circle class="st2" cx="408.2" cy="15.2" r="1.5"/>
	<circle class="st2" cx="404.8" cy="22.3" r="0.8"/>
	<circle class="st3" cx="404.9" cy="0.7" r="7.2"/>
	<circle class="st3" cx="423.7" cy="2.2" r="2.4"/>
	<circle class="st3" cx="438.3" cy="0.2" r="7.6"/>
	<circle class="st3" cx="434.1" cy="12.7" r="2.5"/>
	<circle class="st3" cx="433.1" cy="18.3" r="1.5"/>
	<circle class="st3" cx="459.4" cy="48.5" r="1.9"/>
	<circle class="st3" cx="468.4" cy="40" r="7.5"/>
	<circle class="st3" cx="461.2" cy="54.5" r="2.3"/>
	<circle class="st3" cx="470.4" cy="53.2" r="3.7"/>
	<circle class="st3" cx="461.8" cy="62.8" r="3.7"/>
	<circle class="st3" cx="455.4" cy="74.4" r="7.9"/>
	<circle class="st3" cx="445.9" cy="65.1" r="2.3"/>
	<circle class="st3" cx="443" cy="57.5" r="1.6"/>
	<circle class="st3" cx="467" cy="58.9" r="1.4"/>
	<circle class="st3" cx="474.1" cy="65" r="5.7"/>
	<circle class="st3" cx="478.4" cy="49.6" r="2.6"/>
	<circle class="st3" cx="478.6" cy="36.3" r="1.2"/>
	<circle class="st3" cx="479" cy="42.5" r="2"/>
	<circle class="st3" cx="430.3" cy="54.3" r="4.3"/>
	<circle class="st3" cx="416.6" cy="3.6" r="3.4"/>
	<circle class="st2" cx="361.4" cy="-10.3" r="20.5"/>
	<circle class="st2" cx="376.8" cy="13" r="5"/>
	<circle class="st2" cx="360.6" cy="15" r="2.7"/>
	<circle class="st2" cx="367.7" cy="14.1" r="2.5"/>
	<circle class="st1" cx="335.9" cy="7.7" r="6"/>
	<circle class="st2" cx="349.6" cy="13.7" r="3.1"/>
	<circle class="st1" cx="342.5" cy="19.6" r="4.6"/>
	<circle class="st1" cx="339.4" cy="28.7" r="2.4"/>
	<circle class="st1" cx="336.9" cy="-7.7" r="2.5"/>
	<circle class="st3" cx="387.6" cy="2.8" r="6.1"/>
	<circle class="st1" cx="392" cy="15.1" r="4.4"/>
	<circle class="st2" cx="346.1" cy="-46.5" r="6.6"/>
	<circle class="st3" cx="346.8" cy="-32.7" r="4.3"/>
	<circle class="st1" cx="341.7" cy="-25.3" r="2.2"/>
	<circle class="st2" cx="338.3" cy="-18" r="2.4"/>
	<circle class="st1" cx="364.1" cy="-41.1" r="8.4"/>
	<circle class="st2" cx="420.4" cy="-9.3" r="7.2"/>
	<circle class="st2" cx="396.5" cy="-18" r="11.5"/>
	<circle class="st3" cx="379.2" cy="-30.8" r="5.3"/>
	<circle class="st2" cx="282.1" cy="-24.2" r="11.9"/>
	<circle class="st2" cx="300.5" cy="-33.4" r="5.8"/>
	<circle class="st3" cx="303.7" cy="-24.5" r="2.6"/>
	<circle class="st2" cx="297.2" cy="-25.1" r="2.5"/>
	<circle class="st1" cx="299.5" cy="-15.6" r="5.9"/>
	<circle class="st1" cx="310.9" cy="3.1" r="3.8"/>
	<circle class="st1" cx="299.1" cy="2.3" r="2"/>
	<circle class="st2" cx="304.3" cy="-0.8" r="2.5"/>
	<circle class="st1" cx="304.3" cy="4.1" r="1.1"/>
	<circle class="st2" cx="289" cy="-6.6" r="3.2"/>
	<circle class="st2" cx="291.6" cy="-12.3" r="1.4"/>
	<circle class="st5" cx="296.1" cy="-5.1" r="3.1"/>
	<circle class="st2" cx="304.6" cy="-6.9" r="2"/>
	<circle class="st2" cx="320.4" cy="-10.4" r="2.2"/>
	<circle class="st1" cx="321.7" cy="-16.9" r="3.5"/>
	<circle class="st2" cx="320.8" cy="-25.2" r="1.1"/>
	<circle class="st2" cx="324.6" cy="-22.6" r="2.2"/>
	<circle class="st1" cx="324.7" cy="-29.2" r="2.9"/>
	<circle class="st3" cx="321.1" cy="-40.5" r="1.3"/>
	<circle class="st2" cx="324.7" cy="-36.3" r="3"/>
	<circle class="st2" cx="321.9" cy="-45.8" r="2.7"/>
	<circle class="st2" cx="315.5" cy="-52.6" r="5.3"/>
	<circle class="st3" cx="356.4" cy="-71.4" r="6.9"/>
	<circle class="st5" cx="363.5" cy="-58.7" r="3.9"/>
	<circle class="st3" cx="339.4" cy="-74.2" r="8.2"/>
	<circle class="st5" cx="313.4" cy="-74.4" r="14.2"/>
	<circle class="st2" cx="329.8" cy="-65.6" r="3"/>
	<circle class="st2" cx="324.6" cy="-58.7" r="3.5"/>
	<circle class="st2" cx="417.9" cy="-25.3" r="6.9"/>
	<circle class="st3" cx="440.2" cy="-21.8" r="11.5"/>
	<circle class="st2" cx="431.6" cy="-9.2" r="1.8"/>
	<circle class="st5" cx="437.8" cy="-45.9" r="8.9"/>
	<circle class="st2" cx="286.9" cy="-59.4" r="9.1"/>
	<circle class="st3" cx="302" cy="-57" r="4.4"/>
	<circle class="st3" cx="327" cy="-92.4" r="5.8"/>
	<circle class="st3" cx="339.5" cy="-90.2" r="5.2"/>
	<circle class="st3" cx="456.4" cy="-39.5" r="2.5"/>
	<circle class="st3" cx="448.2" cy="-37" r="1.8"/>
	<circle class="st3" cx="452.9" cy="-32.4" r="3"/>
	<circle class="st5" cx="421.3" cy="-78.3" r="6.1"/>
	<circle class="st3" cx="443.3" cy="-81.3" r="8.9"/>
	<circle class="st3" cx="429.3" cy="-89.2" r="3.2"/>
	<circle class="st5" cx="439.4" cy="-63.9" r="6"/>
	<circle class="st3" cx="261.6" cy="-36" r="5.9"/>
	<circle class="st2" cx="264.2" cy="-22.6" r="5.2"/>
	<circle class="st2" cx="269" cy="-53" r="5.7"/>
	<circle class="st2" cx="254.5" cy="-48.4" r="6.4"/>
	<circle class="st1" cx="266.7" cy="-44.1" r="1.7"/>
	<circle class="st2" cx="191.1" cy="-17.3" r="4.8"/>
	<circle class="st1" cx="197.1" cy="-23.8" r="1.7"/>
	<circle class="st2" cx="219.6" cy="-37.5" r="14.9"/>
	<circle class="st1" cx="246.9" cy="-39.9" r="3.2"/>
	<circle class="st2" cx="235.8" cy="-16.4" r="3.4"/>
	<circle class="st2" cx="188.4" cy="-43.5" r="9.5"/>
	<circle class="st5" cx="199.5" cy="-36" r="2.1"/>
	<circle class="st2" cx="204.8" cy="-61.9" r="9.3"/>
	<circle class="st2" cx="202.7" cy="-48" r="3.2"/>
	<circle class="st1" cx="201.6" cy="-41.8" r="1.8"/>
	<circle class="st2" cx="213.1" cy="-53.5" r="1.3"/>
	<circle class="st2" cx="208.6" cy="-51" r="1.3"/>
	<circle class="st5" cx="234.5" cy="-76.4" r="19.1"/>
	<circle class="st2" cx="232.7" cy="-54" r="2.5"/>
	<circle class="st1" cx="225.6" cy="-56.3" r="1.6"/>
	<circle class="st1" cx="249.1" cy="-57.9" r="3.2"/>
	<circle class="st5" cx="259.1" cy="-63.3" r="5.5"/>
	<circle class="st1" cx="238.5" cy="28.2" r="28.3"/>
	<circle class="st1" cx="208.1" cy="1.7" r="7.1"/>
	<circle class="st1" cx="203.9" cy="14.1" r="2.9"/>
	<circle class="st1" cx="267" cy="4.7" r="3.7"/>
	<circle class="st1" cx="284.1" cy="28" r="9.5"/>
	<circle class="st1" cx="273.8" cy="14.4" r="3.1"/>
	<circle class="st2" cx="278.6" cy="44.4" r="4"/>
	<circle class="st1" cx="301.7" cy="44.4" r="10.1"/>
	<circle class="st2" cx="271.7" cy="-66.3" r="5.1"/>
	<circle class="st5" cx="263.7" cy="-85" r="8"/>
	<circle class="st2" cx="264.1" cy="-72.3" r="3.1"/>
	<circle class="st5" cx="284.6" cy="-81" r="10.1"/>
	<circle class="st1" cx="294.7" cy="-70.1" r="2.5"/>
	<circle class="st5" cx="298.5" cy="-93.4" r="6.4"/>
	<circle class="st2" cx="252.3" cy="-98.2" r="5.6"/>
	<circle class="st2" cx="178.9" cy="-69.6" r="14.9"/>
	<circle class="st1" cx="188" cy="10.9" r="5.3"/>
	<circle class="st1" cx="190.1" cy="23.9" r="6"/>
	<circle class="st2" cx="201.9" cy="22.9" r="2.8"/>
	<circle class="st1" cx="198.9" cy="28" r="1.9"/>
	<circle class="st1" cx="176.2" cy="10.9" r="3.8"/>
	<circle class="st1" cx="180.6" cy="18.4" r="3.5"/>
	<circle class="st1" cx="286.9" cy="42.3" r="3.1"/>
	<circle class="st2" cx="170.1" cy="-30.1" r="10.5"/>
	<circle class="st2" cx="166.9" cy="-13.7" r="4.2"/>
	<circle class="st1" cx="180.1" cy="-18.4" r="3.1"/>
	<circle class="st5" cx="334.3" cy="-111.2" r="13.2"/>
	<circle class="st5" cx="313.4" cy="-97.3" r="6.3"/>
	<circle class="st5" cx="309.3" cy="-115.5" r="9.5"/>
	<circle class="st5" cx="216.8" cy="-93" r="3.4"/>
	<circle class="st5" cx="238.6" cy="-103.3" r="6.1"/>
	<circle class="st3" cx="220.8" cy="-112.8" r="2.1"/>
	<circle class="st5" cx="223" cy="-102.4" r="6.6"/>
	<circle class="st5" cx="322" cy="-132.3" r="7.3"/>
	<circle class="st5" cx="301" cy="-131.1" r="6.3"/>
	<circle class="st5" cx="438.5" cy="-93.9" r="2.6"/>
	<circle class="st5" cx="244.7" cy="-121.1" r="10"/>
	<circle class="st5" cx="361.2" cy="-127.5" r="4.3"/>
	<circle class="st5" cx="203.9" cy="-109.3" r="11.8"/>
	<circle class="st5" cx="475.9" cy="-39.3" r="8.1"/>
	<circle class="st3" cx="451.5" cy="-44" r="2.4"/>
	<circle class="st3" cx="463.5" cy="-38.9" r="3.5"/>
	<circle class="st1" cx="164.2" cy="-49.7" r="8.2"/>
	<circle class="st3" cx="431" cy="-81.9" r="2.1"/>
	<circle class="st1" cx="272.9" cy="54.6" r="3.9"/>
	<circle class="st5" cx="218.7" cy="-121.6" r="5.6"/>
	<circle class="st5" cx="229.6" cy="-114" r="5.4"/>
	<g id="XMLID_62_">
		<circle id="XMLID_34_" class="st6" cx="277" cy="-114.5" r="20.4"/>
		<g id="XMLID_36_">
			<path id="XMLID_37_" class="st7" d="M273.3-127.3c0-0.1,0-0.1-0.1-0.2c-0.2,0.1-0.5,0.2-0.7,0.3c-1.1,0.6-2.1,1.5-2.8,2.6
				c-0.6,0.8-1.1,1.8-1.3,2.8c-0.2,0.8-0.2,1.7-0.2,2.5c0,0.5,0.1,0.9,0.2,1.4c0.4,1.6,1.2,2.9,2.4,4c0.7,0.7,1.5,1.2,2.4,1.6
				c0.1,0,0.1,0.1,0.2,0.1c0-0.1,0.1-0.1,0.1-0.2c0.3-0.8,0.5-1.6,0.8-2.4c0.2-0.6,0.3-1.2,0.4-1.9c0.1-0.6,0.1-1.3,0.2-2
				c0-0.6,0-1.1-0.1-1.7c-0.1-1-0.3-2.1-0.5-3.1C274-124.8,273.7-126.1,273.3-127.3z"/>
			<path id="XMLID_38_" class="st7" d="M274.9-94.6c-0.3-0.6-0.3-1.2,0.1-1.7c0.1-0.1,0.2-0.3,0.3-0.4c0.1-0.1,0.2-0.3,0.2-0.5
				c0-0.1,0-0.3,0-0.4c0-0.8,0-1.6,0-2.4c0,0,0-0.1,0-0.2c-0.4,0.1-0.7,0.1-1.1,0.2c-0.7,0.2-1.2,0.5-1.8,0.9
				c-0.1,0.1-0.1,0.1-0.1,0.2c0.1,0.3,0.2,0.6,0.2,1c0,0.2,0.1,0.3,0,0.5c-0.1,0.3-0.2,0.5-0.5,0.7c-0.4,0.4-0.9,0.6-1.5,0.5
				c-0.2,0-0.3-0.1-0.4-0.2c-0.2-0.1-0.3-0.3-0.5-0.4c-0.1-0.1-0.1-0.2-0.2-0.4c-0.1-0.8,0.1-1.6,0.6-2.2c0.6-0.7,1.3-1.3,2.2-1.7
				c0.6-0.3,1.3-0.6,1.9-0.9c0,0,0.1,0,0.1-0.1c-0.2-0.1-0.4-0.2-0.5-0.3c-0.6-0.3-1.2-0.6-1.8-0.9c-0.2-0.1-0.3-0.1-0.5,0.1
				c-0.5,0.4-1,0.9-1.6,1.3c-0.8,0.7-1.6,1.4-2.4,2.1c-0.1,0.1-0.1,0.1-0.2,0.2c0-0.1-0.1-0.2-0.1-0.3c0-0.2-0.1-0.3-0.1-0.5
				c-0.2-1-0.6-1.9-1.2-2.7c-0.1-0.1-0.2-0.3-0.3-0.4c-0.8-1.1-1.6-2.2-2.4-3.3c-0.6-0.8-1.1-1.6-1.6-2.4c-0.4-0.8-0.8-1.7-1.1-2.6
				c-0.3-0.8-0.6-1.7-0.8-2.6c-0.2-0.7-0.2-1.5-0.3-2.2c0-0.2,0-0.4-0.1-0.6c0-0.4,0-0.8,0-1.2c0-0.2,0.1-0.3,0.1-0.5
				c0.1-0.7,0.3-1.3,0.5-2c0.3-1.1,0.8-2.1,1.5-3c0.4-0.5,0.9-1,1.3-1.5c0.7-0.7,1.5-1.4,2.5-1.8c0.4-0.2,0.9-0.4,1.3-0.6
				c0.1,0,0.2-0.1,0.3,0c-0.1,0.1-0.1,0.1-0.1,0.2c-0.3,0.4-0.6,0.7-0.9,1.1c-0.5,0.6-1.1,1.2-1.5,1.8c-0.8,1.1-1.3,2.3-1.4,3.6
				c-0.1,0.7,0,1.4,0,2.1c0.1,0.9,0.3,1.9,0.5,2.8c0.6,2.3,1.7,4.3,3.3,6c1,1.1,2.2,2.1,3.4,3c1.5,1.2,3.1,2.2,4.8,3.1
				c0.1,0,0.1,0,0.2,0.1c0-0.1,0-0.1,0.1-0.2c0-0.1,0-0.2,0-0.3c0-0.6,0-1.3,0-1.9c0-0.1,0-0.1-0.1-0.2c-1.1-0.8-2.2-1.5-3.4-2
				c-0.1,0-0.1-0.1-0.2-0.1c0.1-0.3,0.3-0.6,0.4-0.9c0.1-0.3,0.3-0.6,0.4-0.9c-0.1,0-0.1-0.1-0.2-0.1c-0.2-0.1-0.4-0.2-0.5-0.3
				c-0.4-0.2-0.8-0.4-1.1-0.6c-1.2-0.8-2.2-1.8-3-3c-0.7-1-1.2-2-1.5-3.2c-0.3-0.9-0.3-1.9-0.3-2.9c0-0.8,0.1-1.6,0.4-2.3
				c0.7-2.2,1.9-4,3.7-5.4c0.6-0.5,1.3-0.9,2-1.3c0.1,0,0.2-0.1,0.3-0.2c0.1-0.1,0.2-0.2,0.1-0.4c0-0.1-0.1-0.2-0.1-0.2
				c0-0.1-0.1-0.2-0.2-0.3c-0.2-0.3-0.2-0.4,0.1-0.6c0.6-0.4,1.1-0.9,1.6-1.3c0.7-0.6,1.4-1.2,2-2c0.1-0.2,0.3-0.4,0.4-0.6
				c-11,0.3-19.8,9.4-19.8,20.4c0,10.7,8.2,19.5,18.7,20.4C275.2-94.2,275-94.4,274.9-94.6z"/>
			<path id="XMLID_49_" class="st7" d="M277.4-134.9c0.5,0.7,1.1,1.3,1.7,1.9c0.8,0.8,1.7,1.5,2.7,2.1c-0.2,0.4-0.4,0.8-0.5,1.2
				c0.1,0,0.1,0,0.2,0.1c0.2,0.1,0.4,0.2,0.6,0.3c1.4,0.7,2.6,1.7,3.6,2.9c1.4,1.7,2.3,3.6,2.4,5.9c0.1,1.1,0,2.1-0.3,3.2
				c-0.3,1.2-0.8,2.2-1.5,3.2c-0.6,0.9-1.3,1.6-2.1,2.2c-0.9,0.7-1.8,1.3-2.8,1.7c-0.1,0-0.1,0-0.2,0.1c0.3,0.6,0.6,1.1,0.8,1.7
				c-0.1,0-0.1,0.1-0.2,0.1c-0.3,0.1-0.5,0.2-0.8,0.4c-1,0.5-1.9,1.1-2.8,1.8c-0.1,0.1-0.1,0.1-0.1,0.2c0,0.4,0,0.9,0,1.3
				c0,0.3,0,0.6,0,0.9c0,0.1,0,0.1,0,0.2c0.1,0,0.2-0.1,0.3-0.1c0.4-0.2,0.8-0.4,1.2-0.6c0.9-0.5,1.8-1.1,2.7-1.7
				c1.5-1.1,2.8-2.2,4.1-3.6c0.9-1,1.7-2,2.3-3.2c0.5-0.9,0.9-1.9,1.2-2.9c0.2-0.8,0.4-1.6,0.5-2.5c0.1-1,0.1-2,0-3
				c-0.1-0.7-0.3-1.4-0.6-2c-0.3-0.5-0.6-1-1-1.5c-0.5-0.6-1-1.1-1.4-1.6c-0.3-0.3-0.5-0.6-0.7-0.9c0-0.1-0.1-0.1-0.1-0.2
				c0.1,0,0.1,0,0.2,0c0.5,0.1,1,0.3,1.5,0.6c1.9,1,3.4,2.5,4.4,4.4c0.8,1.4,1.2,2.9,1.3,4.4c0,0.1,0,0.1,0,0.2c0,0.5,0,1,0,1.6
				c0,0.1,0,0.2,0,0.2c0,0.2,0,0.4,0,0.6c-0.1,1-0.3,1.9-0.6,2.8c-0.4,1.4-1,2.7-1.6,3.9c-0.3,0.5-0.6,1.1-0.9,1.5
				c-0.2,0.3-0.4,0.6-0.7,0.9c-0.7,1-1.5,1.9-2.2,2.9c-0.4,0.5-0.8,1.1-1.1,1.7c-0.2,0.4-0.4,0.9-0.4,1.4c0,0.2-0.1,0.4-0.1,0.6
				c0,0.1,0,0.1-0.1,0.2c-0.1-0.1-0.2-0.2-0.4-0.3c-1-0.8-1.9-1.7-2.9-2.5c-0.3-0.3-0.7-0.6-1-0.8c-0.1-0.1-0.2-0.1-0.3,0
				c-0.2,0.1-0.5,0.2-0.7,0.2c-0.6,0.2-1.1,0.5-1.6,0.8c-0.1,0-0.2,0.1-0.2,0.1c0.1,0,0.1,0,0.1,0.1c0.5,0.2,0.9,0.4,1.4,0.6
				c1,0.5,1.9,1.1,2.6,1.9c0.3,0.3,0.5,0.7,0.6,1.1c0.2,0.6,0.1,1.1-0.2,1.7c-0.2,0.2-0.4,0.4-0.6,0.4c-0.2,0-0.4,0-0.6,0
				c-0.6-0.1-1-0.4-1.3-1c-0.1-0.2-0.1-0.4-0.1-0.6c0.1-0.2,0.1-0.5,0.2-0.7c0-0.2,0.1-0.4,0.1-0.5c-0.3-0.2-0.5-0.3-0.8-0.4
				c-0.6-0.3-1.2-0.5-1.9-0.7c-0.1,0-0.2,0-0.3,0c0,0,0,0.1,0,0.1c0,0.1,0,0.2,0,0.3c0,0.9,0,1.7,0,2.6c0,0.2,0,0.3,0.2,0.5
				c0.1,0,0.1,0.1,0.2,0.2c0.2,0.3,0.3,0.5,0.4,0.8c0.1,0.3,0.1,0.6,0,0.8c-0.1,0.3-0.3,0.6-0.5,0.8c10.6-0.8,18.9-9.6,18.9-20.4
				C297.5-125.6,288.5-134.6,277.4-134.9z"/>
			<path id="XMLID_73_" class="st7" d="M280.4-112.4c0,0.1,0.1,0.2,0.1,0.3c0.1-0.1,0.2-0.1,0.3-0.2c0.5-0.4,1.1-0.8,1.6-1.2
				c0.3-0.2,0.6-0.5,0.9-0.8c0.7-0.8,1.4-1.6,1.9-2.6c0.4-0.7,0.6-1.4,0.7-2.1c0.1-0.5,0.1-1,0.1-1.5c-0.1-0.7-0.2-1.4-0.5-2.1
				c-0.2-0.7-0.6-1.4-1-2c-0.5-0.7-1.1-1.3-1.8-1.8c-0.5-0.5-1.1-0.8-1.8-1.1c0,0-0.1,0-0.2-0.1c0,0.1-0.1,0.1-0.1,0.2
				c0,0.1-0.1,0.3-0.1,0.4c-0.4,1.3-0.7,2.6-1,4c-0.1,0.6-0.2,1.3-0.3,2c0,1,0,2-0.1,3c0,0.5,0,1,0.1,1.5c0.2,0.8,0.4,1.6,0.6,2.4
				C280-113.6,280.2-113,280.4-112.4z"/>
		</g>
	</g>
	<g id="XMLID_61_">
		<circle id="XMLID_33_" class="st6" cx="361.3" cy="-9.9" r="20.7"/>
		<g id="XMLID_31_">
			<path id="XMLID_64_" class="st8" d="M342.2-3.1c1.7,2.9,4.3,4.3,7.6,4.7c1.8,0.2,3.6,0.3,5.3-0.3c2.5-0.9,3.6-3,2.8-5.3
				c-0.6-1.6-1.9-2.3-3.5-2.6c-0.7-0.1-1.4-0.1-2.2-0.2c-0.4-1.6-0.7-3.3-1.1-5c1.2,0.1,2.2,0.3,3.3,0.4c2,0.1,3.2-1.6,2.7-3.5
				c-0.3-1.1-1.5-1.9-2.9-2c-1.8-0.1-3.4,0.5-4.8,1.6c-0.8,0.6-1.5,1.3-2.3,2c-0.9-1.7-1.9-3.5-2.9-5.2c2.9-2.4,5.9-3.9,9.8-3.2
				c4.6,0.8,7.2,5.8,5.3,9.8c-0.6,1.2-1.5,2-2.6,2.7c0.8,0.7,1.6,1.5,2.5,2c0.5,0.3,1.2,0.5,1.8,0.5c1.5-0.1,2.6-0.9,3.3-2.3
				c0.7-1.3,1.4-2.6,2.2-3.7c3.7-4.6,10.2-4.2,13,1c1.3,2.5,1.9,5,1.7,7.5c2.1-7,0.3-14.9-5.2-20.5c-8.1-8.1-21.2-8.1-29.3,0
				c-5.3,5.3-7.1,12.6-5.5,19.4C341.5-4.4,341.9-3.7,342.2-3.1z M365.1-28.1c1,1.1,2,2.2,3,3.4c-1.1,1-2.2,2-3.4,3
				c-1-1.1-2-2.2-3-3.4C362.9-26.1,364-27,365.1-28.1z M370.9-23.6c1,1.7,2,3.4,3,5.2c-3.2,1.9-6.5,2.6-10,1.3
				c-3.4-1.2-5.3-3.8-6.3-7.3C361.3-20.2,367-19.5,370.9-23.6z"/>
			<path id="XMLID_72_" class="st8" d="M367.9,4.8c-2.3-1.4-3.6-3.4-3.9-6.1c0-0.2,0-0.3,0-0.5c0.1,0,0.1,0,0.2,0
				c1.5,2.7,4,3.5,6.8,3.8c1.8,0.2,3.5,0,5-1c2.4-1.5,3.6-4.7,2.9-7.8c-0.2-0.9-0.6-1.9-1.1-2.6c-1.2-1.6-3.4-2-5-0.8
				c-1,0.8-1.8,1.8-2.6,2.8c-0.7,0.9-1.2,1.8-2,2.7c-2,2.4-4.5,2.6-6.9,0.7c-0.2-0.2-0.4-0.3-0.5-0.4c0.1,1.1,0.3,2.2,0.2,3.3
				c-0.4,4.6-4,7.9-8.6,7.8c-1.4,0-2.7-0.2-4-0.6c7.7,6.2,18.8,6.1,26.3-0.2C372.3,6.6,369.8,6,367.9,4.8z"/>
		</g>
	</g>
	<g id="XMLID_66_">
		<circle id="XMLID_1_" class="st6" cx="238.4" cy="28.6" r="28.5"/>
		<g id="XMLID_26_">
			<path id="XMLID_29_" class="st9" d="M253.9,30.1c-0.4,0-0.8,0-1.1,0.1c-0.7,0.2-1.5,0.5-2.2,0.8c-0.4,0.2-0.8,0.2-1.3,0
				c-1.5-0.7-3.1-0.9-4.7-1c-0.1,0-0.3,0.1-0.3,0.2c-0.3,0.7-0.5,1.4-0.8,2.2c1.2,1.2,2.5,2.1,4.1,2.8c0.5,0.2,0.7,0.5,0.8,0.9
				c0.1,0.2,0.2,0.5,0.2,0.7c0.3,0.8,0.8,1.6,1.5,2.3C252.3,36.4,253.6,33.5,253.9,30.1z"/>
			<path id="XMLID_170_" class="st9" d="M225.9,38.8c0.7-0.8,1.2-1.7,1.5-2.7c0.1-0.4,0.4-0.7,0.8-0.9c1.5-0.6,2.8-1.5,4-2.6
				c0.2-0.2,0.2-0.3,0.1-0.5c-0.3-0.5-0.5-1.1-0.7-1.7c-0.1-0.2-0.2-0.3-0.4-0.3c-1.3,0-2.6,0.1-3.8,0.6c-1.1,0.5-2,0.5-3.1-0.1
				c-0.7-0.4-1.5-0.5-2.4-0.5c0.3,3.4,1.5,6.3,3.7,8.9C225.7,38.9,225.8,38.9,225.9,38.8z"/>
			<path id="XMLID_225_" class="st9" d="M236.5,44.2c-0.1-1-0.4-1.9-0.8-2.7c-0.2-0.4-0.3-0.9,0-1.3c0.6-1.5,0.9-3,0.9-4.6
				c0-0.1-0.1-0.3-0.2-0.4c-0.7-0.3-1.4-0.5-2.1-0.8c-1.1,1.1-2,2.3-2.6,3.9c-0.3,0.7-0.7,1.1-1.4,1.3c-0.1,0-0.2,0.1-0.3,0.1
				c-0.8,0.3-1.6,0.8-2.2,1.5c2.6,2.1,5.6,3.4,8.9,3.7C236.5,44.5,236.5,44.4,236.5,44.2z"/>
			<path id="XMLID_226_" class="st9" d="M248,40.8c-0.8-0.7-1.6-1.1-2.6-1.4c-0.5-0.1-0.8-0.4-1-0.9c-0.6-1.6-1.6-2.9-2.8-4.1
				c-0.8,0.3-1.4,0.5-2.1,0.8c-0.1,0-0.3,0.2-0.2,0.4c0,1.3,0.1,2.6,0.7,3.8c0.5,1.1,0.5,2-0.1,3c-0.4,0.7-0.5,1.6-0.5,2.4
				c3.4-0.3,6.3-1.5,9-3.7C248.1,40.9,248.1,40.8,248,40.8z"/>
			<path id="XMLID_227_" class="st9" d="M239.3,13.3c0.1,1,0.4,1.9,0.8,2.7c0.2,0.4,0.3,0.8,0.1,1.3c-0.7,1.5-0.9,3.1-1,4.7
				c0,0.2,0,0.3,0.3,0.4c0.6,0.2,1.2,0.5,1.8,0.7c0.2,0.1,0.3,0.1,0.5-0.1c1-1.1,2-2.3,2.5-3.8c0.3-0.7,0.7-1,1.3-1.2
				c1-0.3,1.9-0.9,2.6-1.6c-2.6-2.1-5.5-3.4-8.9-3.7C239.3,13,239.3,13.1,239.3,13.3z"/>
			<path id="XMLID_228_" class="st9" d="M259,9.8c-0.3,1.1-1.1,1.7-2.1,2.1c-0.2,0.1-0.3,0.2-0.5,0.3c-0.8,0.8-1.2,1.7-1.7,2.7
				c-0.2,0.5-0.2,0.8,0.2,1.2c2.3,3,3.6,6.4,4.1,10.1c0,0.1,0.1,0.3,0.2,0.3c1.1,0.4,2.2,1,3.5,0.9c0.2,0,0.5-0.1,0.7-0.2
				c0.9-0.4,1.8-0.5,2.7-0.1c0.4,0.1,0.7,0.4,0.9,0.7c-0.2-6.8-2.8-13.6-7.9-18.9C259.1,9.2,259,9.5,259,9.8z"/>
			<path id="XMLID_229_" class="st9" d="M222,27.4c0.2,0,0.4,0,0.6,0c0.9-0.1,1.8-0.4,2.6-0.8c0.4-0.2,0.8-0.2,1.3,0
				c1.5,0.6,3.1,0.9,4.7,1c0.2,0,0.3-0.1,0.4-0.3c0.2-0.6,0.5-1.2,0.7-1.7c0.1-0.2,0.1-0.3-0.1-0.5c-1.2-1.1-2.4-2-3.9-2.5
				c-0.6-0.2-0.9-0.6-1-1.1c-0.3-1-0.9-1.9-1.6-2.7C223.5,21,222.3,24,222,27.4z"/>
			<path id="XMLID_230_" class="st9" d="M227.8,16.6c0.8,0.7,1.7,1.2,2.8,1.6c0.4,0.1,0.7,0.4,0.9,0.9c0.6,1.5,1.5,2.8,2.6,4
				c0.2,0.2,0.3,0.2,0.5,0.1c0.6-0.3,1.3-0.6,2-0.9c0.1-0.9-0.2-2.9-0.7-4.3c-0.4-0.9-0.4-1.7,0.1-2.5c0.4-0.8,0.5-1.7,0.6-2.6
				c-3.4,0.3-6.3,1.5-8.9,3.7C227.7,16.5,227.7,16.6,227.8,16.6z"/>
			<path id="XMLID_231_" class="st9" d="M221,9.8c0.1,0.2,0.2,0.5,0.4,0.6c0.9,0.9,2,1.3,3.1,1.8c0.1,0,0.3,0,0.4-0.1
				c2.5-1.9,5.2-3.2,8.3-3.9c0.7-0.2,1.5-0.3,2.2-0.4c0.1,0,0.2-0.1,0.3-0.1c0.5-1.1,1-2.3,0.9-3.5c0-0.2-0.1-0.5-0.2-0.7
				c-0.4-0.9-0.4-1.8-0.1-2.8c0.1-0.2,0.2-0.3,0.3-0.5C230.3,0.5,224,3,218.9,7.7C220,8,220.7,8.7,221,9.8z"/>
			<path id="XMLID_232_" class="st9" d="M250.2,18.4c-0.8,0.8-1.4,1.8-1.7,2.9c-0.1,0.4-0.4,0.7-0.8,0.9c-1.6,0.6-3,1.6-4.2,2.8
				c0.3,0.7,0.6,1.4,0.8,2.1c0.1,0.3,0.2,0.3,0.4,0.3c1.5-0.1,2.9-0.3,4.3-0.9c0.7-0.3,1.4-0.3,2,0.1c0.1,0,0.1,0.1,0.2,0.1
				c0.8,0.4,1.7,0.6,2.7,0.5C253.6,24,252.3,21,250.2,18.4z"/>
			<path id="XMLID_233_" class="st9" d="M265.9,30.3c-0.9,0.3-1.9,0.3-2.8-0.2c-0.1-0.1-0.3-0.1-0.5-0.1c-1.1,0-2.1,0.3-3,0.7
				c-0.6,0.2-0.7,0.5-0.8,1.1c-0.5,3.7-1.9,6.9-4.2,9.8c-0.2,0.3-0.2,0.4-0.1,0.7c0.4,1,0.9,2,1.6,2.8c0.2,0.2,0.4,0.4,0.7,0.5
				c1,0.3,1.6,1,2,1.9c0.1,0.2,0.1,0.5,0.2,0.7c5-5.2,7.6-11.9,7.8-18.6C266.7,29.9,266.3,30.2,265.9,30.3z"/>
			<path id="XMLID_234_" class="st9" d="M236.3,56.7c-0.3-0.9-0.3-1.8,0.2-2.7c0.1-0.1,0.1-0.3,0.1-0.4c0-1.3-0.4-2.5-0.9-3.7
				c0-0.1-0.2-0.2-0.3-0.2c-3.9-0.5-7.3-1.9-10.4-4.3c-0.2-0.2-0.3-0.2-0.6-0.1c-1.1,0.4-2.1,0.9-3,1.7c-0.2,0.2-0.3,0.4-0.4,0.6
				c-0.3,1-0.9,1.7-1.9,2c4.9,4.5,11.1,7,17.3,7.4C236.4,57,236.3,56.8,236.3,56.7z"/>
			<path id="XMLID_235_" class="st9" d="M256.8,49.7c-0.9-0.4-1.6-1-1.9-2c-0.1-0.2-0.2-0.5-0.4-0.7c-0.9-0.9-2-1.3-3.1-1.8
				c-0.1,0-0.3,0-0.4,0.1c-2.6,2-5.4,3.3-8.6,4c-0.6,0.1-1.2,0.2-1.8,0.3c-0.1,0-0.3,0.1-0.4,0.2c-0.5,1.1-1,2.3-0.9,3.6
				c0,0.2,0.1,0.4,0.2,0.6c0.4,0.9,0.5,1.8,0.1,2.7c0,0.1-0.1,0.2-0.2,0.3c6.5-0.2,12.9-2.6,18.1-7.2
				C257.2,49.9,257,49.8,256.8,49.7z"/>
			<path id="XMLID_236_" class="st9" d="M239.5,3.1c-0.3,0.8-0.3,1.5-0.1,2.2c0.2,0.8,0.5,1.6,0.8,2.3c0,0.1,0.2,0.2,0.3,0.2
				c3,0.4,5.8,1.3,8.4,2.9c0.7,0.4,1.4,0.9,2.1,1.4c0.2,0.2,0.3,0.1,0.6,0.1c1-0.4,2-0.9,2.9-1.6c0.2-0.2,0.4-0.5,0.5-0.7
				c0.4-1.1,1.5-2,2.5-2.1c0.1,0,0.3,0,0.4,0c-5.3-4.9-11.9-7.4-18.7-7.5C239.8,0.8,240,1.9,239.5,3.1z"/>
			<path id="XMLID_237_" class="st9" d="M212.2,27.2c0.8,0.4,1.5,0.3,2.3,0.1c0.8-0.2,1.5-0.5,2.3-0.8c0.1,0,0.2-0.2,0.2-0.3
				c0.5-3.9,1.9-7.4,4.3-10.5c0.1-0.2,0.2-0.3,0.1-0.5c-0.5-1.1-0.9-2.2-1.8-3c-0.1-0.1-0.3-0.3-0.5-0.3c-1-0.3-1.8-1.1-2.1-2
				c-4.4,5-6.7,11.1-7,17.4C210.6,26.8,211.4,26.8,212.2,27.2z"/>
			<path id="XMLID_238_" class="st9" d="M218.9,45.7c0.3-0.1,0.5-0.3,0.7-0.5c0.9-0.9,1.3-2,1.7-3.1c0-0.1,0-0.3-0.1-0.4
				c-1.9-2.5-3.2-5.2-3.9-8.2c-0.2-0.8-0.3-1.5-0.4-2.3c0-0.1-0.1-0.3-0.2-0.3c-1.1-0.5-2.3-0.9-3.5-0.9c-0.2,0-0.5,0.1-0.7,0.2
				c-0.9,0.4-1.8,0.5-2.7,0.1c0.4,6.2,2.7,12.3,7.1,17.2C217.3,46.6,218,46,218.9,45.7z"/>
		</g>
	</g>
	<g id="XMLID_59_">
		<circle id="XMLID_23_" class="st6" cx="178" cy="-72.1" r="17.5"/>
		<g id="XMLID_13_">
			<path id="XMLID_17_" class="st9" d="M166.7-85.5c2.5,1.4,5,2.9,7.5,4.3c1-2.8,2.1-5.6,3.1-8.4C173.6-89.5,169.8-88.1,166.7-85.5z
				"/>
			<path id="XMLID_22_" class="st9" d="M180.9-81.3c2.7-1.5,5.3-3,8-4.5c-3.2-2.6-7.1-3.9-11.1-3.8
				C178.9-86.8,179.9-84.1,180.9-81.3z"/>
			<path id="XMLID_39_" class="st9" d="M186.1-77c3,0.6,6,1.1,9.1,1.7c-0.6-3.4-2.2-6.6-4.8-9.2c-0.4-0.4-0.8-0.7-1.2-1.1
				C188.1-82.7,187.1-79.9,186.1-77z"/>
			<path id="XMLID_41_" class="st9" d="M169.1-76.9c-1-2.7-1.9-5.5-2.9-8.2c-0.2,0.2-0.4,0.4-0.6,0.6c-2.6,2.6-4.2,5.8-4.8,9.1
				C163.6-75.9,166.4-76.4,169.1-76.9z"/>
			<path id="XMLID_42_" class="st9" d="M173.1-59.4c1.5-1.8,3.1-3.6,4.6-5.4c1.5,1.8,3,3.6,4.6,5.4c0-2.4,0-4.8,0.1-7.1
				c2.3,0.4,4.6,0.8,7,1.2c-1.5-1.9-3-3.7-4.6-5.5c2-1.2,4.1-2.4,6.1-3.6c-2.4-0.4-4.7-0.9-7-1.3c0.8-2.2,1.6-4.4,2.4-6.7
				c-2.1,1.2-4.2,2.4-6.2,3.5c-0.8-2.2-1.6-4.4-2.5-6.7c-0.8,2.3-1.7,4.5-2.5,6.7c-2.1-1.2-4.1-2.3-6.2-3.5c0.8,2.3,1.6,4.5,2.4,6.7
				c-2.3,0.4-4.6,0.8-7,1.3c2.1,1.2,4.1,2.4,6.2,3.6c-1.5,1.8-3,3.6-4.5,5.5c2.4-0.4,4.7-0.8,7.1-1.2C173-64.1,173-61.8,173.1-59.4
				C173.1-59.4,173.1-59.4,173.1-59.4z"/>
			<path id="XMLID_43_" class="st9" d="M177.7-62.3c-0.1,0.1-0.2,0.2-0.3,0.3c-1.8,2.1-3.6,4.2-5.4,6.3c3.7,1.3,7.7,1.4,11.4,0.1
				C181.5-57.8,179.6-60,177.7-62.3z"/>
			<path id="XMLID_44_" class="st9" d="M184-64.6c0,3,0,5.9-0.1,8.9c2.3-0.8,4.5-2.2,6.4-4.1c1-1,1.9-2.1,2.6-3.3
				C189.9-63.6,186.9-64.1,184-64.6z"/>
			<path id="XMLID_45_" class="st9" d="M187.3-70.4c1.9,2.3,3.9,4.7,5.8,7c2.1-3.6,2.8-7.7,2.1-11.7C192.5-73.5,189.9-72,187.3-70.4
				z"/>
			<path id="XMLID_46_" class="st9" d="M171.4-64.5c-2.8,0.5-5.6,0.9-8.4,1.4c0.7,1.2,1.6,2.3,2.6,3.3c1.7,1.7,3.7,3,5.8,3.9
				C171.4-58.8,171.4-61.7,171.4-64.5z"/>
			<path id="XMLID_47_" class="st9" d="M168-70.3c-2.4-1.4-4.9-2.9-7.4-4.3c-0.5,3.7,0.1,7.5,2,10.8C164.4-66,166.2-68.1,168-70.3z"
				/>
		</g>
	</g>
	<g id="XMLID_70_">
		<circle id="XMLID_53_" class="st6" cx="234.5" cy="-76.5" r="19.4"/>
		<g id="XMLID_54_">
			<path id="XMLID_55_" class="st8" d="M241.7-80.6c0-1.7,0-3.3,0-5c-1.7,0-3.4,0-5.1,0c0,1.7,0,3.3,0,5
				C238.4-80.6,240-80.6,241.7-80.6z"/>
			<path id="XMLID_57_" class="st8" d="M233-80.6c0-1.7,0-3.3,0-5c-1.7,0-3.4,0-5,0c0,1.7,0,3.4,0,5C229.7-80.6,231.3-80.6,233-80.6
				z"/>
			<path id="XMLID_58_" class="st8" d="M247-91.5c-7.2-6-17.6-6-24.8-0.1C230.5-90.8,238.7-90.8,247-91.5z"/>
			<path id="XMLID_78_" class="st8" d="M250.4-86.1c-0.3,0.2-0.7,0.4-1,0.4c-0.8,0.1-1.6,0-2.3,0c0,1.8,0,3.4,0,5.2
				c1.2,0,2.3,0,3.4,0c0,1.8,0,3.5,0,5.3c-1.2,0-2.3,0-3.5,0c0,4.6,0,9.1,0,13.5c0.4-0.4,0.8-0.7,1.3-1.1c6.5-6.5,7.4-16.4,2.8-23.9
				C250.9-86.5,250.6-86.3,250.4-86.1z"/>
			<path id="XMLID_102_" class="st8" d="M222.6-75.3c-1.2,0-2.4,0-3.5,0c0-1.8,0-3.5,0-5.3c1.2,0,2.3,0,3.4,0c0-1.8,0-3.4,0-5.1
				c-0.7,0-1.3,0-1.9,0c-0.7,0-1.1-0.1-1.6-0.6c-0.3-0.3-0.5-0.5-0.8-0.8c-4.8,7.5-4,17.6,2.6,24.2c0.6,0.6,1.2,1.1,1.8,1.6
				C222.6-65.9,222.6-70.5,222.6-75.3z"/>
			<path id="XMLID_103_" class="st8" d="M241.7-75.2c-4.7,0-9.2,0-13.8,0c0,5.7,0,11.3,0,16.9c4.5,1.6,9.4,1.5,13.8-0.2
				C241.7-64,241.7-69.6,241.7-75.2z"/>
		</g>
	</g>
	<g id="XMLID_60_">
		<circle id="XMLID_35_" class="st6" cx="474.2" cy="-4.6" r="25.4"/>
		<path id="XMLID_40_" class="st10" d="M492.9-21.6c-0.9,2.9-1.8,5.7-2.7,8.6c-0.1,0.2,0,0.3,0.1,0.5c2.9,2.1,5.7,4.2,8.5,6.4
			c0.1,0,0.1,0.1,0.3,0.2c-0.2,0-0.2,0-0.3,0c-3.5,0-7.1,0.1-10.6,0.1c-0.3,0-0.4,0.1-0.5,0.3c-1.1,3.4-2.3,6.7-3.4,10.1
			c0,0.1,0,0.1-0.1,0.2c-0.1-0.1-0.1-0.2-0.1-0.3c-1.1-3.4-2.3-6.7-3.4-10.1c-0.1-0.2-0.2-0.3-0.4-0.3c-3.5,0-7.1-0.1-10.6-0.1
			c-0.1,0-0.2,0-0.3-0.1c0.1-0.1,0.1-0.1,0.2-0.2c2.8-2.1,5.7-4.2,8.5-6.3c0.2-0.1,0.2-0.3,0.2-0.5c-1.1-3.4-2.1-6.8-3.2-10.1
			c0-0.1,0-0.2-0.1-0.3c0.1,0.1,0.2,0.1,0.3,0.2c2.9,2.1,5.8,4.1,8.7,6.2c0.2,0.1,0.3,0.1,0.5,0c2.5-1.8,5-3.6,7.5-5.4
			c-4.6-4.6-11-7.5-18-7.5c-14.1,0-25.4,11.4-25.4,25.4s11.4,25.4,25.4,25.4s25.4-11.4,25.4-25.4C499.5-11.1,497-17.1,492.9-21.6z
			 M470.9,16.8c-11.2-2-19.3-11.9-19-23.2c0.3-11.6,8.7-19.9,17.8-21.9c-5.1,3.7-8.2,8.6-9,14.8c-0.7,5.4,0.5,10.4,3.6,14.8
			c3.4,4.9,8.2,7.9,14.1,8.8c5.9,0.9,11.3-0.5,16.2-4.1C490.9,12.6,481.9,18.7,470.9,16.8z"/>
	</g>
	<circle class="st5" cx="187.3" cy="-96.4" r="6.7"/>
	<circle class="st5" cx="204.7" cy="-84.5" r="10.3"/>
	<g id="XMLID_67_">
		<circle id="XMLID_50_" class="st6" cx="373.9" cy="-121.6" r="19.3"/>
		<g id="XMLID_51_">
			<g>
				<path id="XMLID_172_" class="st5" d="M366.9-113.1c-1.1-2-2.3-3.9-3.4-5.9c-1.1,2-2.3,3.9-3.4,5.9
					C362.4-113.1,364.6-113.1,366.9-113.1z"/>
				<path id="XMLID_171_" class="st5" d="M360.1-129.5c1.1,2,2.3,3.9,3.4,5.9c1.1-2,2.3-3.9,3.4-5.9
					C364.6-129.5,362.4-129.5,360.1-129.5z"/>
				<path id="XMLID_169_" class="st5" d="M370.9-110.8c1.1,2,2.3,3.9,3.4,5.9c1.1-2,2.3-3.9,3.4-5.9
					C375.4-110.8,373.2-110.8,370.9-110.8z"/>
				<path id="XMLID_168_" class="st5" d="M391.3-129.8c0,0,0,0.1-0.1,0.1c-1.6,2.7-3.1,5.4-4.7,8.1c-0.1,0.2-0.1,0.3,0,0.4
					c1.5,2.7,3.1,5.3,4.6,8c1.3-2.6,2-5.4,2-8.5C393.2-124.5,392.5-127.3,391.3-129.8z"/>
				<path id="XMLID_167_" class="st5" d="M379.2-113.3c1.5-2.6,3-5.3,4.5-7.9c0-0.1,0-0.2,0-0.3c-1.5-2.6-3-5.3-4.6-7.9
					c0-0.1-0.2-0.2-0.3-0.2c-3,0-6.1,0-9.1,0c-0.2,0-0.2,0.1-0.3,0.2c-1.5,2.6-3,5.2-4.5,7.8c-0.1,0.2-0.1,0.3,0,0.4
					c1.5,2.6,3,5.2,4.5,7.8c0.1,0.2,0.2,0.2,0.4,0.2c1.5,0,3,0,4.5,0c1.5,0,3,0,4.5,0C379-113.1,379.1-113.1,379.2-113.3z"/>
				<path id="XMLID_166_" class="st5" d="M377.7-131.8c-1.1-2-2.3-3.9-3.4-5.9c-1.1,2-2.3,3.9-3.4,5.9
					C373.2-131.8,375.4-131.8,377.7-131.8z"/>
				<path id="XMLID_165_" class="st5" d="M380.2-132.1c0.1,0.2,0.2,0.2,0.4,0.2c3.2,0,6.4,0,9.5,0c-3.2-5.1-8.7-8.6-15-9
					C376.9-137.9,378.6-135,380.2-132.1z"/>
				<path id="XMLID_164_" class="st5" d="M372.5-103.5c-1.4-2.4-2.7-4.7-4.1-7.1c-0.1-0.2-0.2-0.3-0.4-0.3c-3.4,0-6.7,0-10.1,0
					c3.3,5,8.9,8.3,15.3,8.5C372.9-102.7,372.7-103.1,372.5-103.5z"/>
				<path id="XMLID_163_" class="st5" d="M380.7-110.8c-0.2,0-0.3,0.1-0.4,0.2c-1.6,2.7-3.2,5.5-4.7,8.2c6-0.5,11.2-3.7,14.4-8.5
					C386.8-110.8,383.7-110.8,380.7-110.8z"/>
				<path id="XMLID_162_" class="st5" d="M362.1-121.1c0.1-0.2,0-0.3,0-0.4c-1.7-3-3.5-6.1-5.2-9.1c-1.4,2.7-2.3,5.8-2.3,9.1
					c0,3.4,0.9,6.6,2.4,9.3C358.7-115.2,360.4-118.2,362.1-121.1z"/>
				<path id="XMLID_161_" class="st5" d="M368-131.8c0.2,0,0.3-0.1,0.4-0.3c1.7-2.9,3.4-5.9,5.1-8.8c-6.7,0.1-12.6,3.7-16,9.1
					C361-131.8,364.5-131.8,368-131.8z"/>
				<path id="XMLID_160_" class="st5" d="M385.1-119c-1.1,2-2.3,3.9-3.4,5.9c2.3,0,4.5,0,6.8,0C387.4-115.1,386.3-117,385.1-119z"/>
				<path id="XMLID_159_" class="st5" d="M388.5-129.5c-2.3,0-4.5,0-6.8,0c1.1,2,2.3,3.9,3.4,5.9
					C386.3-125.6,387.4-127.5,388.5-129.5z"/>
			</g>
		</g>
	</g>
	<circle class="st6" cx="398" cy="-55.4" r="23.6"/>
	<g>
		<g>
			<path class="st5" d="M401.4-79.2c0,4.4,0,8.7,0,13.2c4.6,0,9.1,0,13.6,0c0,2.3,0,4.5,0,6.9c-4.5,0-9,0-13.5,0c0,9,0,17.9,0,26.9
				c11.5-1.6,20.3-11.5,20.3-23.5C421.8-67.7,412.9-77.6,401.4-79.2z"/>
			<path class="st5" d="M394.6-59.1c-4.6,0-9,0-13.6,0c0-2.3,0-4.5,0-6.9c4.5,0,9,0,13.5,0c0-4.4,0-8.8,0-13.2
				c-11.4,1.7-20.2,11.6-20.2,23.4c0,11.9,8.8,21.8,20.2,23.4C394.6-41.2,394.6-50.1,394.6-59.1z"/>
		</g>
	</g>
	<circle class="st5" cx="359.6" cy="-91.2" r="11.9"/>
	<circle class="st3" cx="392" cy="-87" r="4.3"/>
	<circle class="st4" cx="392" cy="-101.5" r="5.1"/>
	<circle class="st3" cx="428.1" cy="-63.8" r="1.7"/>
	<circle class="st5" cx="426.1" cy="-51.3" r="2.5"/>
	<circle class="st2" cx="430.7" cy="-70.5" r="1.8"/>
	<circle class="st3" cx="426.1" cy="-40.1" r="3.1"/>
	<circle class="st2" cx="420.8" cy="-34.9" r="2.1"/>
</g>
</svg>
