<?xml version="1.0" encoding="utf-8"?>
<!-- Generator: Adobe Illustrator 19.0.0, SVG Export Plug-In . SVG Version: 6.00 Build 0)  -->
<svg version="1.1" id="Layer_1" xmlns="http://www.w3.org/2000/svg" xmlns:xlink="http://www.w3.org/1999/xlink" x="0px" y="0px"
	 viewBox="-7 35.2 82.6 99.7" style="enable-background:new -7 35.2 82.6 99.7;" xml:space="preserve">
<style type="text/css">
	.st0{display:none;}
	.st1{display:inline;fill:#451125;}
	.st2{display:inline;fill:#861A44;}
	.st3{display:inline;fill:#068293;}
	.st4{display:inline;fill:#E69E3B;}
	.st5{display:inline;fill:#62BDBF;}
	.st6{display:inline;fill:#006374;}
	.st7{display:inline;fill:#F4D1A6;}
	.st8{display:inline;fill:#AE3462;}
	.st9{display:inline;fill:#D36E97;}
	.st10{display:inline;fill:#00313C;}
	.st11{fill:#BB9F00;}
	.st12{fill:#FFE900;}
	.st13{fill:#FFFF00;}
	.st14{fill:#5C5C5C;}
</style>
<g id="Layer_4" class="st0">
	<title>BIG IDeA background logo-all colours</title>
	<polygon class="st1" points="26.5,105.9 60.5,165.2 -7.6,165.2 	"/>
	<polygon class="st2" points="-0.7,153.2 -27.8,105.9 26.4,105.9 	"/>
	<polygon class="st3" points="-7.4,141.4 -0.7,153.2 -14.2,153.2 	"/>
	<polygon class="st4" points="-7.6,165.2 -14.2,153.2 -0.7,153.2 	"/>
	<polygon class="st3" points="-7.4,141.4 -27.8,105.9 -48.3,141.4 	"/>
	<polygon class="st5" points="-48.3,141.4 -27.8,176.9 -7.4,141.4 	"/>
	<polygon class="st3" points="-7.6,165.2 -21.1,165.2 -14.2,153.2 	"/>
	<polygon class="st6" points="-48.3,188.8 -27.9,224.2 -7.5,188.8 	"/>
	<polygon class="st1" points="60.5,165.2 33.3,165.2 46.9,188.8 	"/>
	<polygon class="st1" points="46.9,188.8 6,188.8 26.5,224.3 	"/>
	<polygon class="st7" points="19.8,165.2 -21.1,165.2 -0.8,200.6 	"/>
	<polygon class="st8" points="46.9,188.8 19.7,188.8 33.3,165.2 	"/>
	<polygon class="st9" points="19.8,165.2 26.5,176.9 12.9,176.9 	"/>
	<polygon class="st9" points="6,188.8 19.7,188.8 12.9,176.9 	"/>
	<polygon class="st4" points="12.9,176.9 26.5,176.9 19.7,188.8 	"/>
	<polygon class="st1" points="19.8,165.2 33.3,165.2 26.5,176.9 	"/>
	<polygon class="st8" points="-14.3,224.3 26.5,224.3 6,188.8 	"/>
	<polygon class="st10" points="-7.5,212.4 -0.8,200.6 -14.3,200.6 	"/>
	<polygon class="st5" points="-7.5,188.8 -14.3,200.6 -0.8,200.6 	"/>
	<polygon class="st3" points="-14.3,200.6 -21.1,212.4 -7.5,212.4 	"/>
	<polygon class="st3" points="-21.1,165.2 -34.6,188.8 -7.5,188.8 	"/>
</g>
<circle id="XMLID_1915_" class="st11" cx="57.7" cy="108.2" r="12.1"/>
<circle id="XMLID_1911_" class="st12" cx="36.4" cy="159.6" r="12.1"/>
<circle id="XMLID_1909_" class="st13" cx="36.4" cy="56.8" r="12.1"/>
<circle id="XMLID_1907_" class="st13" cx="36.3" cy="87" r="9.3"/>
<circle id="XMLID_1906_" class="st12" cx="6.2" cy="159.5" r="9.3"/>
<circle id="XMLID_1903_" class="st11" cx="36.3" cy="129.5" r="9.3"/>
<circle id="XMLID_1898_" class="st11" cx="12.5" cy="137.1" r="6.8"/>
<circle id="XMLID_1895_" class="st13" cx="24.5" cy="108.2" r="6.8"/>
<circle id="XMLID_1894_" class="st12" cx="-16.3" cy="149" r="6.8"/>
<circle id="XMLID_1892_" class="st12" cx="-28.2" cy="137" r="5.2"/>
<circle id="XMLID_1890_" class="st13" cx="12.5" cy="120.2" r="5.2"/>
<circle id="XMLID_1886_" class="st11" cx="-4.4" cy="137" r="5.2"/>
<circle id="XMLID_1884_" class="st11" cx="-17.1" cy="131.1" r="3.8"/>
<circle id="XMLID_1880_" class="st14" cx="-33.2" cy="124.4" r="3.8"/>
<circle id="XMLID_1878_" class="st13" cx="-0.9" cy="124.4" r="3.8"/>
<circle id="XMLID_1876_" class="st13" cx="-10.4" cy="124.4" r="2.9"/>
<circle id="XMLID_1873_" class="st14" cx="-33.2" cy="114.9" r="2.9"/>
<circle id="XMLID_1872_" class="st11" cx="-23.8" cy="124.4" r="2.9"/>
</svg>
